<svg xmlns="http://www.w3.org/2000/svg" width="105" height="31.111" viewBox="0 0 105 31.111">
  <g id="app" transform="translate(876 -19)">
    <path id="Path_2" data-name="Path 2" d="M107.174,30.307a2.98,2.98,0,0,1-2.984,2.98H6.549a2.984,2.984,0,0,1-2.988-2.98V6.545A2.988,2.988,0,0,1,6.549,3.561h97.64a2.983,2.983,0,0,1,2.984,2.984V30.307Z" transform="translate(-878.869 16.131)" fill="#fff"/>
    <path id="Path_3" data-name="Path 3" d="M101.321,31.111H3.68A3.68,3.68,0,0,1,0,27.439V3.677A3.683,3.683,0,0,1,3.68,0h97.64A3.684,3.684,0,0,1,105,3.677V27.438a3.68,3.68,0,0,1-3.679,3.673Z" transform="translate(-876 19)" fill="#a6a6a6"/>
    <path id="Path_4" data-name="Path 4" d="M107.174,30.307a2.98,2.98,0,0,1-2.984,2.98H6.549a2.984,2.984,0,0,1-2.988-2.98V6.545A2.988,2.988,0,0,1,6.549,3.561h97.64a2.983,2.983,0,0,1,2.984,2.984V30.307Z" transform="translate(-878.869 16.131)"/>
    <path id="Path_5" data-name="Path 5" d="M64.686,35.43a4.51,4.51,0,0,1,2.149-3.784A4.621,4.621,0,0,0,63.2,29.679c-1.531-.161-3.016.916-3.8.916-.8,0-2-.9-3.29-.874a4.845,4.845,0,0,0-4.078,2.486c-1.763,3.052-.448,7.537,1.241,10,.845,1.209,1.833,2.557,3.125,2.51,1.265-.051,1.737-.805,3.263-.805s1.956.805,3.274.775c1.357-.021,2.212-1.214,3.027-2.433a9.972,9.972,0,0,0,1.384-2.819A4.363,4.363,0,0,1,64.686,35.43ZM62.2,28.056a4.438,4.438,0,0,0,1.016-3.181,4.523,4.523,0,0,0-2.924,1.512,4.224,4.224,0,0,0-1.043,3.064A3.736,3.736,0,0,0,62.2,28.056Z" transform="translate(-917.241 -1.038)" fill="#fff"/>
    <path id="Path_7" data-name="Path 7" d="M178.555,82.523h-1.767l-.968-3.041h-3.365l-.922,3.041h-1.721l3.335-10.354h2.059Zm-3.027-4.317-.875-2.7q-.139-.414-.522-1.95H174.1q-.154.661-.492,1.95l-.861,2.7Zm11.586.492a4.227,4.227,0,0,1-1.035,3.01,3.035,3.035,0,0,1-2.3.983,2.3,2.3,0,0,1-2.132-1.059V85.55h-1.659V77.511q0-1.2-.061-2.454h1.459l.093,1.183h.031a2.952,2.952,0,0,1,4.724-.293A4.128,4.128,0,0,1,187.113,78.7Zm-1.69.061a3.077,3.077,0,0,0-.492-1.8,1.7,1.7,0,0,0-1.444-.737,1.726,1.726,0,0,0-1.114.407,1.887,1.887,0,0,0-.653,1.068,2.165,2.165,0,0,0-.077.5V79.45a2,2,0,0,0,.5,1.376,1.659,1.659,0,0,0,1.3.561,1.7,1.7,0,0,0,1.459-.722A3.177,3.177,0,0,0,185.423,78.759ZM195.7,78.7a4.227,4.227,0,0,1-1.035,3.01,3.037,3.037,0,0,1-2.3.983,2.3,2.3,0,0,1-2.132-1.059V85.55h-1.659V77.511q0-1.2-.061-2.454h1.459l.093,1.183h.031a2.953,2.953,0,0,1,4.725-.293A4.132,4.132,0,0,1,195.7,78.7Zm-1.691.061a3.077,3.077,0,0,0-.493-1.8,1.7,1.7,0,0,0-1.443-.737,1.733,1.733,0,0,0-1.115.407,1.886,1.886,0,0,0-.652,1.068,2.216,2.216,0,0,0-.078.5V79.45a2,2,0,0,0,.5,1.376,1.662,1.662,0,0,0,1.3.561,1.7,1.7,0,0,0,1.459-.722A3.177,3.177,0,0,0,194.011,78.759Zm11.294.86a2.765,2.765,0,0,1-.921,2.151,4.081,4.081,0,0,1-2.821.906,4.925,4.925,0,0,1-2.682-.645l.384-1.383a4.617,4.617,0,0,0,2.4.646,2.262,2.262,0,0,0,1.459-.422,1.38,1.38,0,0,0,.524-1.128,1.446,1.446,0,0,0-.431-1.06,4,4,0,0,0-1.429-.8q-2.72-1.014-2.721-2.966a2.618,2.618,0,0,1,.96-2.089,3.8,3.8,0,0,1,2.543-.815,5.027,5.027,0,0,1,2.351.492L204.5,73.86a4.111,4.111,0,0,0-1.99-.476,2.024,2.024,0,0,0-1.373.43,1.231,1.231,0,0,0-.416.938,1.268,1.268,0,0,0,.477,1.014,5.374,5.374,0,0,0,1.505.8,5.1,5.1,0,0,1,1.967,1.259A2.623,2.623,0,0,1,205.306,79.618Zm5.5-3.317h-1.829v3.625q0,1.383.968,1.382a2.915,2.915,0,0,0,.737-.077l.046,1.26a3.76,3.76,0,0,1-1.29.184,1.989,1.989,0,0,1-1.537-.6,2.941,2.941,0,0,1-.553-2.013V76.3h-1.089V75.054h1.089V73.687l1.63-.492v1.859h1.829V76.3Zm8.235,2.427a4.1,4.1,0,0,1-.984,2.826,3.507,3.507,0,0,1-2.735,1.137A3.343,3.343,0,0,1,212.7,81.6a3.97,3.97,0,0,1-.976-2.749,4.062,4.062,0,0,1,1.006-2.841,3.488,3.488,0,0,1,2.713-1.106A3.413,3.413,0,0,1,218.087,76,3.919,3.919,0,0,1,219.04,78.728Zm-1.72.038a3.342,3.342,0,0,0-.444-1.761,1.642,1.642,0,0,0-1.491-.889,1.666,1.666,0,0,0-1.521.889,3.4,3.4,0,0,0-.445,1.793,3.332,3.332,0,0,0,.445,1.762,1.7,1.7,0,0,0,3-.015A3.356,3.356,0,0,0,217.32,78.766Zm7.115-2.251a2.889,2.889,0,0,0-.523-.046,1.566,1.566,0,0,0-1.353.661,2.49,2.49,0,0,0-.414,1.474v3.917h-1.659V77.408q0-1.176-.048-2.35h1.445l.061,1.428h.046a2.561,2.561,0,0,1,.83-1.183,2.007,2.007,0,0,1,1.2-.4,2.664,2.664,0,0,1,.415.03Zm7.42,1.921a3.889,3.889,0,0,1-.061.752h-4.977a2.165,2.165,0,0,0,.722,1.691,2.47,2.47,0,0,0,1.628.521,5.506,5.506,0,0,0,2.014-.352l.26,1.151a6.228,6.228,0,0,1-2.5.461,3.63,3.63,0,0,1-2.728-1.021,3.774,3.774,0,0,1-.991-2.742,4.275,4.275,0,0,1,.923-2.81,3.18,3.18,0,0,1,2.611-1.2,2.783,2.783,0,0,1,2.444,1.2A4.029,4.029,0,0,1,231.856,78.437Zm-1.582-.43a2.245,2.245,0,0,0-.322-1.275,1.449,1.449,0,0,0-1.321-.692,1.573,1.573,0,0,0-1.321.676,2.477,2.477,0,0,0-.491,1.29l3.455,0Z" transform="translate(-1012.792 -39.013)" fill="#fff"/>
    <path id="Path_8" data-name="Path 8" d="M176,31.617a10.6,10.6,0,0,1-1.193-.061V26.551a9.034,9.034,0,0,1,1.4-.106c1.9,0,2.779.936,2.779,2.462C178.99,30.666,177.955,31.617,176,31.617Zm.279-4.53a3.329,3.329,0,0,0-.657.053v3.805a4.307,4.307,0,0,0,.551.023,1.8,1.8,0,0,0,1.956-2.038A1.66,1.66,0,0,0,176.278,27.087Zm5.443,4.568a1.746,1.746,0,0,1-1.767-1.887,1.787,1.787,0,0,1,1.828-1.94,1.733,1.733,0,0,1,1.767,1.88,1.8,1.8,0,0,1-1.828,1.947Zm.031-3.232c-.589,0-.967.551-.967,1.321s.385,1.306.959,1.306.959-.589.959-1.322S182.325,28.423,181.752,28.423Zm7.912-.52-1.148,3.669h-.748l-.475-1.593A12.08,12.08,0,0,1,187,28.794h-.016a7.939,7.939,0,0,1-.294,1.185l-.506,1.593h-.756l-1.08-3.669h.838l.416,1.744q.147.623.249,1.178h.016c.06-.309.158-.695.3-1.17l.521-1.751h.665l.5,1.714c.121.415.219.823.295,1.208h.022a10.563,10.563,0,0,1,.249-1.208l.446-1.714h.8Zm4.226,3.669h-.816V29.465c0-.649-.249-.974-.74-.974a.847.847,0,0,0-.816.9v2.182H190.7v-2.62c0-.324-.008-.672-.03-1.05h.717l.038.566h.023a1.318,1.318,0,0,1,1.163-.641c.77,0,1.276.589,1.276,1.547v2.2Zm2.249,0h-.816V26.219h.816Zm2.974.083a1.747,1.747,0,0,1-1.767-1.887,1.787,1.787,0,0,1,1.827-1.94,1.732,1.732,0,0,1,1.767,1.88,1.8,1.8,0,0,1-1.827,1.947Zm.03-3.232c-.589,0-.967.551-.967,1.321s.386,1.306.958,1.306.959-.589.959-1.322S199.717,28.423,199.142,28.423Zm5.012,3.149-.059-.422h-.022a1.253,1.253,0,0,1-1.073.506,1.067,1.067,0,0,1-1.124-1.08c0-.906.785-1.374,2.145-1.374v-.068c0-.483-.256-.725-.762-.725a1.718,1.718,0,0,0-.959.272l-.166-.536a2.346,2.346,0,0,1,1.26-.317c.959,0,1.443.506,1.443,1.518V30.7a5.541,5.541,0,0,0,.053.876h-.735Zm-.112-1.828c-.906,0-1.36.219-1.36.74a.52.52,0,0,0,.56.573.781.781,0,0,0,.8-.747Zm4.755,1.828-.038-.589h-.023a1.23,1.23,0,0,1-1.178.672,1.672,1.672,0,0,1-1.54-1.873,1.741,1.741,0,0,1,1.607-1.956,1.1,1.1,0,0,1,1.035.5h.016V26.219h.816v4.364c0,.355.009.687.03.989H208.8Zm-.121-2.159a.888.888,0,0,0-.859-.951c-.6,0-.974.536-.974,1.291S207.227,31,207.8,31a.916.916,0,0,0,.875-.974v-.612Zm5.992,2.242a1.746,1.746,0,0,1-1.767-1.887,1.787,1.787,0,0,1,1.827-1.94,1.732,1.732,0,0,1,1.767,1.88,1.8,1.8,0,0,1-1.828,1.947Zm.03-3.232c-.588,0-.966.551-.966,1.321s.385,1.306.958,1.306.959-.589.959-1.322S215.275,28.423,214.7,28.423Zm6.184,3.149h-.816V29.465c0-.649-.249-.974-.74-.974a.846.846,0,0,0-.815.9v2.182H217.7v-2.62c0-.324-.008-.672-.03-1.05h.717l.038.566h.023a1.318,1.318,0,0,1,1.163-.642c.77,0,1.277.589,1.277,1.547Zm5.487-3.058h-.9V30.3c0,.454.157.68.475.68a1.607,1.607,0,0,0,.362-.038l.023.619a1.807,1.807,0,0,1-.633.091c-.643,0-1.027-.355-1.027-1.284v-1.85h-.535V27.9h.535v-.672l.8-.242V27.9h.9v.612Zm4.317,3.058h-.815V29.481c0-.657-.248-.989-.74-.989a.8.8,0,0,0-.816.868v2.212H227.5V26.219h.815v2.2h.016a1.237,1.237,0,0,1,1.1-.6c.777,0,1.251.6,1.251,1.563v2.182Zm4.423-1.638h-2.447a1.053,1.053,0,0,0,1.156,1.087,2.757,2.757,0,0,0,.989-.173l.127.566a3.064,3.064,0,0,1-1.231.226,1.7,1.7,0,0,1-1.827-1.849,1.792,1.792,0,0,1,1.735-1.971,1.541,1.541,0,0,1,1.526,1.744,1.571,1.571,0,0,1-.028.37Zm-.748-.581c0-.566-.286-.966-.807-.966a.967.967,0,0,0-.892.966h1.7Z" transform="translate(-1016.816 -2.121)" fill="#fff"/>
  </g>
</svg>
