<svg xmlns="http://www.w3.org/2000/svg" width="54" height="37.969" viewBox="0 0 54 37.969">
  <g id="mail" transform="translate(0 -76)">
    <g id="Group_13399" data-name="Group 13399" transform="translate(0 76)">
      <path id="Path_45818" data-name="Path 45818" d="M49.254,76H4.746A4.753,4.753,0,0,0,0,80.746v28.477a4.753,4.753,0,0,0,4.746,4.746H49.254A4.752,4.752,0,0,0,54,109.223V80.746A4.751,4.751,0,0,0,49.254,76Zm-.665,3.164L30.356,97.3a4.746,4.746,0,0,1-6.715,0L5.411,79.164ZM3.164,108.579V81.392l13.673,13.6ZM5.413,110.8,19.08,97.224l2.327,2.314a7.91,7.91,0,0,0,11.184,0l2.329-2.317L48.587,110.8Zm45.423-2.226L37.163,94.993l13.673-13.6Z" transform="translate(0 -76)" fill="#d7a844"/>
    </g>
  </g>
</svg>
