<svg xmlns="http://www.w3.org/2000/svg" width="40" height="40" viewBox="0 0 40 40">
  <g id="Youtube" transform="translate(0.005 0.005)">
    <g id="_02.youtube" data-name="02.youtube" transform="translate(-0.005 -0.005)">
      <path id="background" d="M32.839,39.312a121.035,121.035,0,0,1-25.68,0A7.288,7.288,0,0,1,.678,32.839a121.034,121.034,0,0,1,0-25.68A7.288,7.288,0,0,1,7.15.678a121.035,121.035,0,0,1,25.68,0A7.288,7.288,0,0,1,39.312,7.15a121.035,121.035,0,0,1,0,25.68,7.288,7.288,0,0,1-6.472,6.481Z" transform="translate(0.005 0.005)" fill="#d7a844"/>
      <path id="icon" d="M57.413,50.93a4.442,4.442,0,0,0-3.677-2.684,77.985,77.985,0,0,0-16.476,0,4.42,4.42,0,0,0-3.677,2.684,31.23,31.23,0,0,0,0,12.029,4.447,4.447,0,0,0,3.677,2.684,77.986,77.986,0,0,0,16.476,0,4.42,4.42,0,0,0,3.677-2.684A31.23,31.23,0,0,0,57.413,50.93Zm-14.906,10.8V52.153l7.8,4.791Z" transform="translate(-25.497 -36.944)" fill="#fff"/>
    </g>
  </g>
</svg>
