<svg id="Linkedin" xmlns="http://www.w3.org/2000/svg" width="40" height="40" viewBox="0 0 40 40">
  <g id="linkedin-2" data-name="linkedin">
    <rect id="background" width="40" height="40" rx="6" fill="#d7a844"/>
    <g id="icon" transform="translate(7.591 7.5)">
      <path id="Path_45819" data-name="Path 45819" d="M40.218,36.409A3.409,3.409,0,1,1,36.809,33a3.409,3.409,0,0,1,3.409,3.409Z" transform="translate(-33.4 -33)" fill="#fff"/>
      <path id="Path_45820" data-name="Path 45820" d="M42.042,70.125V85.187a.843.843,0,0,1-.843.848H37.605a.843.843,0,0,1-.845-.845V70.125a.845.845,0,0,1,.845-.845H41.2A.845.845,0,0,1,42.042,70.125Z" transform="translate(-35.996 -61.035)" fill="#fff"/>
      <path id="Path_45821" data-name="Path 45821" d="M86.872,77.116v7.291a.775.775,0,0,1-.777.777H82.231a.775.775,0,0,1-.777-.777V77.341c0-1.055.309-4.618-2.757-4.618-2.375,0-2.859,2.439-2.955,3.534v8.15a.777.777,0,0,1-.766.777H71.245a.775.775,0,0,1-.775-.777V69.21a.775.775,0,0,1,.775-.777h3.732a.777.777,0,0,1,.777.777v1.314c.882-1.323,2.189-2.343,4.977-2.343C86.909,68.18,86.872,73.948,86.872,77.116Z" transform="translate(-62.045 -60.185)" fill="#fff"/>
    </g>
  </g>
</svg>
