<svg xmlns="http://www.w3.org/2000/svg" width="40" height="40" viewBox="0 0 40 40">
  <g id="twitter" transform="translate(0)">
    <path id="Path_45822" data-name="Path 45822" d="M307.417,252.838l9,12.875h-3.694l-7.345-10.506h0l-1.078-1.542L295.72,241.39h3.694l6.925,9.905Z" transform="translate(-286.08 -233.521)" fill="#d7a844"/>
    <path id="Path_45823" data-name="Path 45823" d="M35.678,0H4.322A4.322,4.322,0,0,0,0,4.322V35.678A4.322,4.322,0,0,0,4.322,40H35.678A4.322,4.322,0,0,0,40,35.678V4.322A4.322,4.322,0,0,0,35.678,0ZM25.513,33.921,18.08,23.1,8.774,33.921H6.369L17.012,21.549,6.369,6.059h8.118L21.525,16.3,30.338,6.059h2.405l-10.149,11.8h0L33.631,33.921Z" fill="#d7a844"/>
  </g>
</svg>
