<svg xmlns="http://www.w3.org/2000/svg" width="40" height="40" viewBox="0 0 40 40">
  <g id="instagram" transform="translate(0.07 0.038)">
    <path id="Path_45824" data-name="Path 45824" d="M2.539,2.739C-.6,5.994.046,9.451.046,19.956c0,8.723-1.522,17.468,6.445,19.527,2.488.64,24.531.64,27.015,0,3.317-.856,6.016-3.546,6.385-8.236.052-.655.052-21.908,0-22.576-.392-5-3.468-7.876-7.522-8.459C31.439.074,31.253.034,26.487.025,9.581.034,5.875-.719,2.539,2.739Z" transform="translate(0 0)" fill="#d7a844"/>
    <path id="Path_45825" data-name="Path 45825" d="M17.866,3.145c-6.034,0-11.764-.537-13.953,5.079-.9,2.32-.773,5.332-.773,9.645,0,3.785-.121,7.342.773,9.644,2.184,5.619,7.96,5.081,13.95,5.081,5.778,0,11.736.6,13.951-5.081.906-2.343.773-5.31.773-9.644,0-5.752.317-9.466-2.473-12.254-2.825-2.825-6.646-2.471-12.255-2.471ZM16.546,5.8c12.587-.02,14.189-1.419,13.3,18.016-.314,6.874-5.549,6.119-11.984,6.119C6.134,29.934,5.8,29.6,5.8,17.863,5.8,5.991,6.728,5.8,16.546,5.795Zm9.18,2.444a1.766,1.766,0,1,0,1.767,1.766A1.767,1.767,0,0,0,25.726,8.242Zm-7.861,2.065a7.561,7.561,0,1,0,7.56,7.562,7.562,7.562,0,0,0-7.56-7.562Zm0,2.653c6.49,0,6.5,9.816,0,9.816S11.368,12.961,17.866,12.961Z" transform="translate(2.12 2.096)" fill="#fff"/>
  </g>
</svg>
