<svg xmlns="http://www.w3.org/2000/svg" width="72" height="72" viewBox="0 0 72 72">
    <path d="M12 6a6 6 0 1 1-6-6 6 6 0 0 1 6 6z" transform="translate(21 18)" style="stroke:#af8c3c;stroke-linecap:round;stroke-linejoin:round;stroke-width:2px;fill:none"/>
    <path data-name="Vector" d="M30 0h-9C6 0 0 6 0 21v18c0 15 6 21 21 21h18c15 0 21-6 21-21V27" transform="translate(6 6)" style="stroke:#af8c3c;stroke-linecap:round;stroke-linejoin:round;stroke-width:2px;fill:none"/>
    <path data-name="Vector" d="M.341 8.279c-.99-3.12.18-6.99 3.42-8.04A4.556 4.556 0 0 1 8.8 1.8 4.393 4.393 0 0 1 13.84.24c3.27 1.05 4.44 4.92 3.45 8.04-1.56 4.92-6.96 7.5-8.46 7.5-1.53-.001-6.899-2.521-8.489-7.501z" transform="translate(48.019 7.051)" style="stroke:#af8c3c;stroke-linecap:round;stroke-linejoin:round;stroke-width:2px;fill:none"/>
    <path data-name="Vector" d="m0 20.858 14.79-9.93a6.759 6.759 0 0 1 7.92.42l.99.87a6.688 6.688 0 0 0 8.46 0L44.64 1.507a6.688 6.688 0 0 1 8.46 0l4.89 4.2" transform="translate(8.01 35.992)" style="stroke:#af8c3c;stroke-linecap:round;stroke-linejoin:round;stroke-width:2px;fill:none"/>
</svg>
