<svg xmlns="http://www.w3.org/2000/svg" xmlns:xlink="http://www.w3.org/1999/xlink" width="204.71" height="344.492" viewBox="0 0 204.71 344.492">
  <defs>
    <linearGradient id="linear-gradient" x1="2.277" y1="-0.498" x2="3.308" y2="-0.498" gradientUnits="objectBoundingBox">
      <stop offset="0" stop-color="#d7a844"/>
      <stop offset="0.25" stop-color="#f3d490"/>
      <stop offset="0.32" stop-color="#e6c47e"/>
      <stop offset="0.46" stop-color="#c79a52"/>
      <stop offset="0.6" stop-color="#a46d21"/>
      <stop offset="0.84" stop-color="#ddc67c"/>
      <stop offset="0.87" stop-color="#e6d48a"/>
      <stop offset="1" stop-color="#e9c780"/>
    </linearGradient>
    <linearGradient id="linear-gradient-2" x1="6830.664" y1="-4775.136" x2="6831.552" y2="-4775.136" xlink:href="#linear-gradient"/>
    <linearGradient id="linear-gradient-3" x1="0.338" y1="0.488" x2="0.719" y2="0.511" xlink:href="#linear-gradient"/>
    <linearGradient id="linear-gradient-4" x1="-0.28" y1="0.446" x2="1.284" y2="0.554" xlink:href="#linear-gradient"/>
    <linearGradient id="linear-gradient-5" x1="0.091" y1="0.418" x2="0.893" y2="0.583" xlink:href="#linear-gradient"/>
    <linearGradient id="linear-gradient-6" x1="0" y1="0.5" x2="1" y2="0.5" xlink:href="#linear-gradient"/>
    <linearGradient id="linear-gradient-7" x1="0" y1="0.5" x2="1" y2="0.5" xlink:href="#linear-gradient"/>
    <linearGradient id="linear-gradient-8" x1="-0.001" y1="0.5" x2="1.001" y2="0.5" xlink:href="#linear-gradient"/>
    <linearGradient id="linear-gradient-9" x1="-39.426" y1="-93.74" x2="-39.004" y2="-93.74" xlink:href="#linear-gradient"/>
    <linearGradient id="linear-gradient-10" x1="0" y1="0.5" x2="1" y2="0.5" xlink:href="#linear-gradient"/>
    <linearGradient id="linear-gradient-11" x1="-43.004" y1="-32.945" x2="-41.823" y2="-32.945" xlink:href="#linear-gradient"/>
    <linearGradient id="linear-gradient-12" x1="7.064" y1="-3.988" x2="7.951" y2="-1.621" xlink:href="#linear-gradient"/>
  </defs>
  <g id="Group_3052" data-name="Group 3052" transform="translate(-35.803 22.243) rotate(-9)" opacity="0.748">
    <g id="Group_400" data-name="Group 400" transform="translate(27.611 120.091)">
      <path id="Path_2490" data-name="Path 2490" d="M2087.375,1339.5a30.7,30.7,0,0,0-3.215,21.316,68.916,68.916,0,0,1,1.528,6.92c.77,6.991-2.962,14.456-.112,20.867-2.4-.8-5.078-.743-7.481-1.54-8.674-2.864-17.454-5.745-26.552-6.345a48.161,48.161,0,0,0,1.187,12.629c1.381,6.818,2.985,13.648,5.936,19.926s7.352,12.018,13.282,15.469c-3.967,6.446-4.572,16.14-.388,22.443a31.835,31.835,0,0,0,6.5,6.77c5.789,4.745,12.459,8.765,19.828,9.712s15.515-1.719,19.652-8.016a44.449,44.449,0,0,0,23.1,18.267c6.693,2.349,13.828,3.026,20.88,3.691l10.338.97c.576-6.117-.852-12.413-3.115-18.111a69.036,69.036,0,0,0-9.221-15.792c6.894-.042,13.758-2.378,19.9-5.578,5.695-2.966,11.272-6.47,15.4-11.443,3.05-3.667,5.207-8,7.334-12.288-6.012-2.978-11.912-5.578-17.93-8.555a65.024,65.024,0,0,0-8.127-3.577,33.21,33.21,0,0,0-31.629,6.219,72.442,72.442,0,0,0,10.343-10.838c4.584-5.793,7.217-12.989,8.592-20.3s1.557-14.792,1.7-22.233a27.088,27.088,0,0,0-.811-8.855c-2.057-1.647-5.066-.635-7.417.539q-8.622,4.332-17.507,8.058c-4.5,1.893-9.121,3.7-12.976,6.734s-6.917,7.537-6.993,12.5c-2.1-8.034-5.795-14.942-10.3-21.873-5.236-8.058-12.435-15.751-21.721-17.692Z" transform="translate(-2050.727 -1338.428)" fill="#fff"/>
      <g id="Group_399" data-name="Group 399">
        <g id="Group_398" data-name="Group 398">
          <path id="Path_2491" data-name="Path 2491" d="M2201.837,1418.488a165.331,165.331,0,0,0-22.42-10.509c-4.76-1.731-10.408-3.4-16.2-2.708a37.635,37.635,0,0,0-10.155,3.1,47.407,47.407,0,0,0-5.007,1.57c3.6-3.187,7.61-6.8,10.091-11.4,2.045-3.786,2.991-8.142,3.72-11.928a204.583,204.583,0,0,0,3.485-29.913c.188-4.409-1-7.165-3.432-7.968-2.186-.719-4.331.569-5.895,1.516a98.169,98.169,0,0,1-12.923,6.53c-1.211.5-2.462.995-3.667,1.468-4.419,1.738-8.986,3.529-12.917,6.4-3.52,2.576-7.046,6.734-8.128,11.659a55.6,55.6,0,0,0-30.859-38.331l-.588-.27-.347.551a29.24,29.24,0,0,0-3.867,21.634c.223,1.042.506,2.073.776,3.079a29.151,29.151,0,0,1,1.14,5.59,30.687,30.687,0,0,1-.811,7.729l-.053.288-.253.036c-.03.539-.047,1.084-.053,1.624a19.467,19.467,0,0,0,0,8.693,11.981,11.981,0,0,0,.441,1.294,19.25,19.25,0,0,1-2.715-4.985,62.027,62.027,0,0,1-2.2-6.734,1.886,1.886,0,0,0-.182,1.336c.652,2.169,1.269,4.355,2.08,6.464.458,1.192.129,1.666-.964,1.893a1.116,1.116,0,0,0-.347.144c.035.03.077.06.118.09-9.209-4.4-19.723-6-28.6-7.339l-.9-.138.047.929c.047.971.059,1.851.071,2.708a18.221,18.221,0,0,0,.6,5.482,77.194,77.194,0,0,0,12.406,33.5c1.8,2.684,4.049,5.644,7.17,7.4a16.978,16.978,0,0,0-2.727,8.585c-.235,6.045,2.41,12.354,7.452,17.77a36.881,36.881,0,0,0,19.394,10.832,34.543,34.543,0,0,0,6.788.713,6.756,6.756,0,0,0,1.975.1l-.012-.138a23.158,23.158,0,0,0,6.376-1.282,10.491,10.491,0,0,0,1.781-.629,9.154,9.154,0,0,0,2.38-1.636,11.742,11.742,0,0,0,2.815-3.151c4.437,7.663,12.383,13.8,22.52,17.362a70.1,70.1,0,0,0,9.021,2.462,169.842,169.842,0,0,0,20.193,2.51c1.063.09,3.05.258,4.26-1.048l-.958-.923.347-.12-.141-.665c-1.7-7.974-3.367-15.121-6.552-21.885a43.389,43.389,0,0,0-5.707-9.106c9.926-1.12,18.077-3.595,24.853-7.543,8.856-5.158,15.285-13.109,17.648-21.808l.159-.587-.523-.288Zm-74.442-52.6c3.773-2.762,8.251-4.517,12.582-6.219,1.217-.479,2.468-.97,3.7-1.48a100.46,100.46,0,0,0,13.123-6.626c1.651-.994,3.256-1.845,4.678-1.378,2.292.761,2.486,4.374,2.4,6.452a203.988,203.988,0,0,1-3.462,29.686,39.786,39.786,0,0,1-3.561,11.491c-2.421,4.487-6.312,7.926-10.073,11.257-.276.246-.552.485-.823.725-3.726,2.39-7.816,4.188-11.748,6.237-1.07.557-1.792.252-2.615-.857q1.56-1.294,3.121-2.6a14.908,14.908,0,0,0-2.768,1.63,3.3,3.3,0,0,1-1.287.443c-.752.114-1.516.138-2.257.2a3.648,3.648,0,0,0,.241-.611,41.368,41.368,0,0,0,1.034-4.493c.135-1.024.458-2.408-.917-2.864-1.61-.533-2.01,1.031-2.709,1.983-1.116,1.522-2.209,3.061-3.126,4.332-1.393-.288-2.5-.515-3.62-.749-.305.252-.67.545-1.21.989-.03-.491-.094-.683-.035-.827.811-1.995,1.681-3.972,2.439-5.991.223-.6.423-1.528.129-1.929-.5-.7-1.052-1.965-2.6-.707.035-.335.071-.653.106-.958a57.842,57.842,0,0,0,1.122-22.173l.406-.048c-.746-6.261,3.514-11.8,7.757-14.906Zm-1.6,65.74c-1.481.755-2.415.222-2.468-1.372a3.216,3.216,0,0,0-.306-1.258,4.311,4.311,0,0,0-.717-.875c.047-.114.088-.228.135-.347.964.2,1.928.4,2.527.521.347,1.408.588,2.372.823,3.331Zm.517-5.374c.235-.407.741-.9,1.123-.893a1.7,1.7,0,0,1,1.152.881c.946,1.773,1.375,5.392-.229,6.626-1.74-1.06-2.986-4.979-2.045-6.608Zm-3.22.755c.734-.467,1.334-.839,1.875-1.18C2124.91,1427.181,2124.71,1427.337,2123.088,1427.007Zm-.588-2.091c-1-2.684.129-6.47,2.034-7.04C2125.9,1420.83,2123.564,1422.6,2122.5,1424.916Zm-.311-7.758c.811-1.54,1.51-2.87,2.339-4.445.37,1.264.617,2.091.846,2.864.858.09,1.6.168,2.656.282-.652,1.114-1.2,2.043-1.845,3.145C2124.957,1416.4,2124.939,1416.385,2122.189,1417.158Zm6.411-9.676c.823,2.151.147,5.458-1.422,6.758a2.944,2.944,0,0,1-1,.348,7.859,7.859,0,0,1-.082-1.048,19.061,19.061,0,0,0,.206-2.223c-.088-1.647.969-3.5,2.3-3.834Zm-9.544,52.608c-.476-.671-.928-1.342-1.369-1.995.1-.27.194-.539.276-.809.394.977.74,1.911,1.093,2.81Zm-16.426,4.943a3.564,3.564,0,0,1-.758.312h-.288a8.918,8.918,0,0,1-5.213-4.044,28.116,28.116,0,0,1-2.633-6.309c-.241-.743-.482-1.486-.746-2.217a12.467,12.467,0,0,0-3.5-5.7c-2-1.624-4.519-1.977-6.947-2.325a25.315,25.315,0,0,1-3.738-.719,12,12,0,0,1-8.1-11.838l-.235-.012c1.71-4.038,5.025-7.13,8.939-7.9,3.344-.659,6.664.258,10.173,1.228a31.6,31.6,0,0,0,8.445,1.528c.828,0,1.657-.072,2.462-.138a17.134,17.134,0,0,1,3.832-.036,1.342,1.342,0,0,0,1.845.7c.688-.21,1.387-.4,2.08-.587.065.078.123.156.188.234-.453.635-.911,1.264-1.364,1.9a2.8,2.8,0,0,0,1.54-.288,14.086,14.086,0,0,1,1.651-.815c.864-.27,1.357-.108,1.363,1.072a12.812,12.812,0,0,0,.735,3.014c1.029-.222,1.816-.389,2.574-.551.188.431.376.851.564,1.27l-.412.12c1.334,4.661,1.657,9.616,1.975,14.409.241,3.678.546,8.262-1.493,11.784-2.3,3.99-6.776,5.446-10.226,5.967a4.086,4.086,0,0,0-2.709-.036Zm-10.384-41.369q4.205.818,8.4,1.672c-.094.006-.188.012-.276.024-.776.066-1.575.132-2.345.132a21.435,21.435,0,0,1-4.931-.659l.053-.042a12.991,12.991,0,0,0-.9-1.132Zm14.281-8.723.182.2.735-.689a5.11,5.11,0,0,1,3.9-.174c.411.144.975.815.911,1.132a1.565,1.565,0,0,1-1.111,1.007,22.335,22.335,0,0,1-3.9-.252c-.37-.054-.687-.521-1.187-.935.159-.108.312-.2.464-.293Zm6.018,5.278a.909.909,0,0,1,.441,1.683,9.07,9.07,0,0,1-3.074,1.624,9.853,9.853,0,0,1-2.745.066C2107.491,1421.573,2111.27,1419.956,2112.545,1420.219Zm4.76-14.289c.141-.449.259-.911.388-1.36.253-.012.505-.012.764,0,.641.042,1.24.725,1.857,1.115-.505.467-.94,1.15-1.534,1.354-1.922.653-3.849.174-6.088-.222a10,10,0,0,1,3.356-1.941c-.059.2-.112.4-.17.6l1.422.461Zm1.393,2.528q-1.181,2.085-2.357,4.17c-.129-.072-.258-.15-.388-.222.523-1.552.94-3.157,2.157-4.3.194.114.394.228.588.342Zm.682,15.75a11.712,11.712,0,0,1-1.892,3.541,15.565,15.565,0,0,1-2.879,2.5,2.536,2.536,0,0,1-1.281.4c-.112.012-.447-.581-.37-.725a6.1,6.1,0,0,1,.981-1.084c-.617-2.343,2.01-5.368,3.879-5.955,1.075-.336,1.91.258,1.557,1.324Zm.893-7.723a44.132,44.132,0,0,1-4.337,1.492c-.223.072-.523-.114-.793-.186.064-.24.053-.545.2-.7a10.791,10.791,0,0,1,4.884-3.463c.976-.264,1.8.365,1.616,1.612a6.809,6.809,0,0,1-1.575,1.246Zm-35.325-53.926c-.264-.983-.541-2-.758-3a27.671,27.671,0,0,1,3.32-19.92,54.734,54.734,0,0,1,26.222,27.164,56.192,56.192,0,0,1,2.6,37.091,2.583,2.583,0,0,1-.694.21,8.051,8.051,0,0,0-2.891,1.474,1.528,1.528,0,0,0-.535,1.24c.053.359.535.755.917.929a13.418,13.418,0,0,0,1.975.563c-.353,1.348-.7,2.54-.964,3.756-.364,1.672-.97,1.935-2.492,1.21a3.907,3.907,0,0,0-2.045-.348,9.988,9.988,0,0,1-2.709.168l-5.377-5.967a28.137,28.137,0,0,0-3.879-5.074c-2.545-2.45-4.572-5.458-7.111-7.908-.876-.845-1.775-1.641-2.557-2.522l.053-.066c-.105-.084-.211-.162-.317-.246a7.837,7.837,0,0,1-1.651-3.061c-.576-2.2-1.011-4.451-1.434-6.692-.023-.114-.042-.234-.059-.347.147-1.516.441-3.062.741-4.655a31.928,31.928,0,0,0,.834-8.124,30.528,30.528,0,0,0-1.193-5.889Zm12.2,39.727-5.377-5.967Q2094.6,1399.178,2097.148,1402.288Zm-11.1-10.329a48.122,48.122,0,0,0,3.162,3.774l15.115,16.775s.035.054.047.078a20.97,20.97,0,0,1,1.111,3.031c.176.437.406,1.067.752,1.186,1.628.563,1.416,2.157,1.969,3.068-1.058.959-2.768.27-3.332,1.983l-2.221-.629c.423,1.324,1.481,1.306,2.345,1.654a1.314,1.314,0,0,1,.705.881c.03.222-.452.737-.705.737a26.522,26.522,0,0,1-4.684-.234c-3.132-.551-6.241-1.24-9.4-1.9a31.282,31.282,0,0,0-8-4.517,42.337,42.337,0,0,1-6.047-3.067c-.153-.1-.311-.2-.464-.312a7.685,7.685,0,0,0-3.467-1.564,7.453,7.453,0,0,0-1.422.03,7.975,7.975,0,0,1-.981.042c-2.521-.108-4.278-2.912-4.907-5.644-.206-.9-.347-1.851-.488-2.774a17.531,17.531,0,0,0-1.739-6.207c-1.393-2.45-3.738-3.99-6-5.482-.37-.246-.735-.485-1.1-.731-2.274-1.54-3.379-2.912-3.926-4.463-.071-.6-.141-1.21-.2-1.815l-.206.018a30.98,30.98,0,0,1-.159-3.319c-.006-.587-.018-1.192-.035-1.833,11.5,1.75,24.324,3.84,34.273,11.239Zm-21.491,28.739a75.524,75.524,0,0,1-11.66-29.428,15.533,15.533,0,0,0,2.58,2.133c.365.252.74.5,1.116.743,2.116,1.4,4.308,2.834,5.524,4.967a16.039,16.039,0,0,1,1.552,5.674c.141.953.294,1.935.511,2.894.752,3.289,2.991,6.674,6.294,6.818a9.281,9.281,0,0,0,1.17-.048,6.256,6.256,0,0,1,1.152-.03,6.482,6.482,0,0,1,2.792,1.324c.159.108.323.216.482.324a43.737,43.737,0,0,0,6.259,3.181c3.162,1.4,6.17,2.738,8.386,4.991l-.729-.2c-3.52-.977-7.164-1.983-10.848-1.252a13.4,13.4,0,0,0-7.746,4.955c-2.938-1.594-5.1-4.451-6.835-7.033Zm11.742,33.574c-2.756-2.96-7.34-9.059-7.041-16.661a16,16,0,0,1,.241-2.133,13.573,13.573,0,0,0,8.886,10.011,25.845,25.845,0,0,0,3.961.773c2.333.33,4.537.641,6.224,2.007a11.091,11.091,0,0,1,3.032,5.032c.253.719.494,1.45.729,2.181a29.417,29.417,0,0,0,2.792,6.65,12.272,12.272,0,0,0,1.217,1.624c-2.592-1.156-5.172-2.325-7.763-3.481-.464-.21-.958-.365-1.434-.545-.047.132-.094.27-.147.4,1.88.947,3.773,1.875,5.648,2.834a29.592,29.592,0,0,0,4.919,1.983c.071.054.135.114.206.168a35.342,35.342,0,0,1-21.468-10.844Zm63.417,21.783a45.309,45.309,0,0,1-14.434-8.094c3.814,1.887,8.181,2.145,12.417,2.4,3.638.216,7.4.431,10.743,1.689a35.933,35.933,0,0,1,7.052,3.978c1.146.767,2.339,1.564,3.55,2.277a22.461,22.461,0,0,0,5.148,2.271C2155.951,1479.83,2147.588,1478.812,2139.713,1476.056Zm30.23,4.937a10.24,10.24,0,0,0,1.281-.318A2.9,2.9,0,0,1,2169.944,1480.993Zm-5.883-22.5c3.026,6.416,4.66,13.258,6.294,20.861-3.726.971-7.763-.719-10.567-2.366-1.176-.695-2.345-1.474-3.479-2.229a36.841,36.841,0,0,0-7.352-4.134c-3.556-1.336-7.428-1.564-11.178-1.785-4.9-.288-9.538-.557-13.387-3.127a14.678,14.678,0,0,1-1.8-1.432h.417c-.053-.162-.07-.371-.182-.455a8.815,8.815,0,0,1-3.755-5.727c-.171-.995-.494-2.079-.6-3.086.1-.641.159-1.282.2-1.923a20.475,20.475,0,0,0,.823-6.225c.006-.929.159-1.857.259-2.966.029.012-.212-.084-.453-.174.129-.042.264-.084.394-.132q-1.04-5.113-2.086-10.227c.141-.066.282-.126.429-.192.705.8,1.41,1.6,2.122,2.4.076-.06.153-.12.223-.174-.182-.695-.37-1.39-.552-2.085l.318-.216,4.631,4.128c.047-.066.094-.126.141-.192-.629-1.24-1.252-2.486-1.881-3.72.306.114.605.234.905.347,4.184,2.546,9.009,3.684,13.681,4.781,4.078.958,8.292,1.947,12,3.87a27.9,27.9,0,0,1,7.258,5.512l-.282,1.2,1.034-.1c.082-.006.165-.018.241-.024a41.366,41.366,0,0,1,6.177,9.58Zm19.752-18.632c-6.823,3.972-15.1,6.417-25.27,7.459.588-2.45,1.434-5.4,3.309-6.237a25.636,25.636,0,0,1,7.751-1.671l10.185-1.12a35.66,35.66,0,0,0,9.115-1.929A41.154,41.154,0,0,1,2183.813,1439.864Zm10.149-8.381-.464-.341c-2.915,4.116-8.451,5.045-13.869,5.638l-10.185,1.12a26.717,26.717,0,0,0-8.2,1.791c-2.262,1.018-3.285,3.846-3.949,6.422a29,29,0,0,0-7-5.152,48.4,48.4,0,0,0-11.254-3.738,7.744,7.744,0,0,0-1.528-.36,59.479,59.479,0,0,1-9.491-2.81l3.073.144c.012-.114.018-.234.03-.348-.547-.2-1.1-.407-1.328-.491.135-2.1.252-4.026.394-6.183,1.058.216,2.18.449,3.3.683.018-.114.042-.234.059-.347-.935-.192-1.881-.347-2.8-.6-.429-.12-1.017-.323-1.175-.665a3.768,3.768,0,0,0-3.743-2.241,6.13,6.13,0,0,1-1.1-.216,5.737,5.737,0,0,1,4.037-3.613c.705,1.18,1.364,2.282,2.045,3.427.541-.072,1.134-.156,1.833-.252.047-.647.088-1.246.147-2.1a3.788,3.788,0,0,0-.552.461c-.212.336-.4.683-.6,1.025a8.876,8.876,0,0,1-.8-1.1,24.6,24.6,0,0,1-1.181-2.522,6.254,6.254,0,0,1-.558-2.169c0-.5.488-1.006.764-1.5.441.306,1.117.515,1.27.929a15.623,15.623,0,0,1,.57,2.109v.258h.059c.082.371.165.737.259,1.1a10.383,10.383,0,0,0,.441,1.144c.141-.06.276-.126.417-.186-.041-.24-.088-.479-.129-.719-.1-.533-.171-.941-.206-1.276l.018.048.452-.2a19.852,19.852,0,0,0,9.35-4.014l9.891-4.242a61.154,61.154,0,0,1,7.411-2.8l.958-.216a.148.148,0,0,0-.012-.048,23.128,23.128,0,0,1,2.78-.521c5.483-.659,10.925.958,15.521,2.63a161.114,161.114,0,0,1,21.679,10.125,32.542,32.542,0,0,1-6.635,11.922Z" transform="translate(-2050.209 -1337.71)" fill="url(#linear-gradient)"/>
          <path id="Path_2492" data-name="Path 2492" d="M2174.157,1548.95h-.047a.033.033,0,0,0,.012.03l.041-.03Z" transform="translate(-2101.296 -1422.395)" fill="url(#linear-gradient-2)"/>
        </g>
        <path id="Path_2493" data-name="Path 2493" d="M2167.53,1439.965a131.824,131.824,0,0,0,10.637-35.665,132.531,132.531,0,0,1-9.873,36.018Z" transform="translate(-2098.583 -1364.405)" fill="url(#linear-gradient-3)"/>
        <path id="Path_2494" data-name="Path 2494" d="M2118.455,1361.36a150.567,150.567,0,0,1,6.976,13.384c2.092,4.583,3.961,9.28,5.594,14.055a127.472,127.472,0,0,1,4.155,14.576,114.429,114.429,0,0,1,2.245,15l-.083.012c-.864-4.973-1.792-9.921-2.979-14.81-1.164-4.889-2.427-9.76-3.973-14.546s-3.326-9.49-5.336-14.1-4.219-9.124-6.664-13.516l.071-.042Z" transform="translate(-2078.322 -1347.191)" fill="url(#linear-gradient-4)"/>
        <path id="Path_2495" data-name="Path 2495" d="M2142.667,1489.257a39.306,39.306,0,0,0-17,16.224,39.767,39.767,0,0,1,16.62-16.991Z" transform="translate(-2081.324 -1398.156)" fill="url(#linear-gradient-5)"/>
        <path id="Path_2496" data-name="Path 2496" d="M2182.834,1514.616a88.487,88.487,0,0,1-10.578-9.418,30.174,30.174,0,0,1-7.076-12.228c.018,2.408,3.461,3.828,4.942,5.7a35.805,35.805,0,0,0,6.012,5.979c2.574,2.007,5.448,3.679,7.628,6.129" transform="translate(-2097.614 -1399.952)" fill="none" stroke="#707070" stroke-miterlimit="10" stroke-width="1.43"/>
        <path id="Path_2497" data-name="Path 2497" d="M2140.557,1484.63a60.194,60.194,0,0,0-19.247,9.418" transform="translate(-2079.526 -1396.609)" fill="none" stroke="#707070" stroke-miterlimit="10" stroke-width="1.43"/>
        <path id="Path_2498" data-name="Path 2498" d="M2138.45,1501.8a44.523,44.523,0,0,1,10.173-12.563c-4.449,4.619-7.769,11.485-9.949,17.56" transform="translate(-2086.593 -1398.457)" fill="none" stroke="#707070" stroke-miterlimit="10" stroke-width="1.43"/>
        <path id="Path_2499" data-name="Path 2499" d="M2146.06,1502.979c1.863-4.128,3.785-8.346,6.87-11.629-.517.216.065,2.372-.2,2.87a37.307,37.307,0,0,0-3.955,12.18" transform="translate(-2089.73 -1399.303)" fill="none" stroke="#707070" stroke-miterlimit="10" stroke-width="1.43"/>
        <path id="Path_2500" data-name="Path 2500" d="M2180.9,1415.388a112.487,112.487,0,0,1-9.473,29.392c4.137-10.437,11.378-20.382,17.824-29.53" transform="translate(-2100.191 -1368.795)" fill="none" stroke="#707070" stroke-miterlimit="10" stroke-width="1.43"/>
        <path id="Path_2501" data-name="Path 2501" d="M2182.87,1438.936a97.849,97.849,0,0,1,18.03-22.706" transform="translate(-2104.908 -1369.188)" fill="none" stroke="#707070" stroke-miterlimit="10" stroke-width="1.43"/>
        <path id="Path_2502" data-name="Path 2502" d="M2184.89,1446.251q9.009-9.5,17.2-19.771" transform="translate(-2105.741 -1373.297)" fill="none" stroke="#707070" stroke-miterlimit="10" stroke-width="1.43"/>
        <path id="Path_2503" data-name="Path 2503" d="M2183.48,1454.518a68.666,68.666,0,0,0,17.677-17.578" transform="translate(-2105.16 -1377.491)" fill="none" stroke="#707070" stroke-miterlimit="10" stroke-width="1.43"/>
        <path id="Path_2504" data-name="Path 2504" d="M2195.9,1481.214a143.123,143.123,0,0,0,40.844-4.433" transform="translate(-2110.28 -1393.462)" fill="none" stroke="#707070" stroke-miterlimit="10" stroke-width="1.43"/>
        <path id="Path_2505" data-name="Path 2505" d="M2079.65,1439.81a107.234,107.234,0,0,0,31.87,15.2" transform="translate(-2062.348 -1378.641)" fill="none" stroke="#707070" stroke-miterlimit="10" stroke-width="1.43"/>
      </g>
    </g>
    <path id="Path_2506" data-name="Path 2506" d="M2174.2,1308.837a210.732,210.732,0,0,0-21.074-61.462c-5.806-11.006-12.823-22.73-12.524-34.85a2.609,2.609,0,0,1,4.4-1.839c7.6,7.315,12.682,16.889,16.784,26.864,9.127,22.191,11.342,47.252,12.406,71.288Z" transform="translate(-2059.865 -1166.406)" fill="#fff" stroke="#707070" stroke-miterlimit="10" stroke-width="2.41"/>
    <g id="Group_401" data-name="Group 401" transform="translate(158.148 147.033)">
      <path id="Path_2507" data-name="Path 2507" d="M2318.562,1400.839a30.213,30.213,0,0,0-3.144,2.115l-10.067,6.309c-.6.377-1.534.671-1.869.042-.264-.5.158-1.072.558-1.456,1.681-1.618,3.644-3.037,5.318-4.661a.989.989,0,0,0-1.258-1.522,42.84,42.84,0,0,0-7.793,7.651.976.976,0,0,1-.505.336l-6.605,1.749a.988.988,0,0,1-1.076-1.48c2.251-3.643,3.115-8.381,6.406-11.1,3.979-3.283,10.667-2.882,13.188-7.429a54.658,54.658,0,0,0-5.56,1.941.987.987,0,0,1-1.063-1.605c.4-.426.805-.857,1.2-1.288a1.091,1.091,0,0,0,.135-.216c1.787-1.642,3.979-2.912,5.859-4.487a2.614,2.614,0,0,0,.952-1.24c.705-2.648-3.585-.066-4.143.461q-2.618,2.49-5.236,4.985c-.723.629-1.452,1.252-2.163,1.905a.974.974,0,0,1-1.61-.857,18.876,18.876,0,0,0-.382-7.6.974.974,0,0,0-1.881.012c-1.175,4.667-.176,9.969-2.016,14.48a43.022,43.022,0,0,1-3.55,5.943c-4.184,6.83-7.1,18.6-12.188,24.629a1,1,0,0,0,.4,1.57.971.971,0,0,0,1.128-.33,71.637,71.637,0,0,0,8.18-15.235.965.965,0,0,1,.881-.653,21.1,21.1,0,0,0,5.712-.995.946.946,0,0,1,1,.264c.981,1.084,2.6,1.228,4.108,1.564a22.369,22.369,0,0,0,4.719.509c.023,0,.047.012.07.012a19.522,19.522,0,0,0,4.055.084c.711-.06,2.932-.012,3.179-.947.329-1.24-1.975-.8-2.592-.7-2.28.341-4.584.5-6.887.635a9.1,9.1,0,0,1-3.138-.443,1,1,0,0,1,.153-1.887,32.275,32.275,0,0,0,9.632-3.888,16.188,16.188,0,0,0,3.726-2.037l2.633-1.767a12.759,12.759,0,0,0,2.809-2.265c1.188-1.42.065-1.893-1.287-1.108Z" transform="translate(-2275.428 -1382.68)" fill="url(#linear-gradient-6)"/>
      <path id="Path_2508" data-name="Path 2508" d="M2325.813,1462.98c-9.08-2.42-18.753-.755-27.709,2.109-.129.845.253.923-.223,1.624,1.975-1.408,3.656-1.15,6.035-.761a27.889,27.889,0,0,1,6.823,2.391q2.195.989,4.39,1.983c1.734.779,5.865,3.008,5.43,1.522-3.473-3.121-6.735-3.1-10.837-5.29-.006,0-1.581-.629-1.587-.635-.917-.5-.987-1.474.041-1.618a57.3,57.3,0,0,1,13.887-.27c1.675.174,5.889.545,4.913-.557a3.759,3.759,0,0,0-1.158-.491Z" transform="translate(-2282.866 -1414.405)" fill="url(#linear-gradient-7)"/>
      <path id="Path_2509" data-name="Path 2509" d="M2272.707,1425.855a4.579,4.579,0,0,0-.317,1.875q-.123,4.556.018,9.106c.047,1.576-.447,7.417.976,8.148.758-2.283-.03-5.883.123-8.364.194-3.151.588-6.291.934-9.43a3.646,3.646,0,0,0-.241-2.289A1.538,1.538,0,0,0,2272.707,1425.855Z" transform="translate(-2272.332 -1399.602)" fill="url(#linear-gradient-8)"/>
    </g>
    <path id="Path_2510" data-name="Path 2510" d="M2210.07,1305.269c6.335-19.669,8.11-40.506,10.472-61.067,1.2-10.418,2.792-21.4,9.244-29.572,2.474-2.522,3.791-3.229,6.124-1.887s3.385,4.2,3.873,6.884a50.244,50.244,0,0,1,.312,12.569,162.866,162.866,0,0,1-21.862,70.443" transform="translate(-2088.512 -1167.253)" fill="none" stroke="#707070" stroke-miterlimit="10" stroke-width="2.41"/>
    <path id="Path_2511" data-name="Path 2511" d="M2237.653,1225.83a301.3,301.3,0,0,1-20.463,84.181" transform="translate(-2091.448 -1172.767)" fill="none" stroke="#707070" stroke-miterlimit="10" stroke-width="2.41"/>
    <path id="Path_2512" data-name="Path 2512" d="M2242.31,1368.1c8.5-3.984,16.749-8.849,23.331-15.625a44.558,44.558,0,0,0,10.043-15.751,5.851,5.851,0,0,0-7.123-7.639,32.791,32.791,0,0,0-13.893,8.37c-4.7,4.859-7.987,10.91-11.107,16.943" transform="translate(-2101.805 -1214.057)" fill="none" stroke="#707070" stroke-miterlimit="10" stroke-width="2.41"/>
    <path id="Path_2513" data-name="Path 2513" d="M2243.33,1367.474c8.574-6.752,17.331-13.7,23.137-23.024" transform="translate(-2102.226 -1220.321)" fill="none" stroke="#707070" stroke-miterlimit="10" stroke-width="2.41"/>
    <path id="Path_2514" data-name="Path 2514" d="M2163.36,1542.03c.664,9.514,3.209,26.678,7.111,35.353a44.389,44.389,0,0,0,10.925,15.133,5.769,5.769,0,0,0,9.521-4.1,34.138,34.138,0,0,0-2.786-16.2c-2.8-6.189-8.709-13.773-13.146-18.872" transform="translate(-2069.252 -1299.53)" fill="none" stroke="#707070" stroke-miterlimit="10" stroke-width="2.41"/>
    <path id="Path_2515" data-name="Path 2515" d="M2174.19,1554.44c3.173,10.562,7.211,24.51,13.728,33.334" transform="translate(-2073.718 -1304.504)" fill="none" stroke="#707070" stroke-miterlimit="10" stroke-width="2.41"/>
    <path id="Path_2516" data-name="Path 2516" d="M2003.27,1542.442a1.893,1.893,0,0,0,.987,2.091c.112.054.217.114.329.168a3.21,3.21,0,0,0,1.563.5c20.4-.21,37.705-3.241,55.236-12.623l-.658-1.276c-17.337,9.28-34.409,12.252-54.589,12.456a2.075,2.075,0,0,1-.893-.329c-.129-.066-.253-.132-.312-.156a.536.536,0,0,1-.276-.324,148.816,148.816,0,0,1,48.143-20.807,9.163,9.163,0,0,1-2.028-1.941l-.141-.917c-15.685,2.48-46.227,17.416-47.361,23.168Zm4.2-2.99a24.008,24.008,0,0,0-2.715,2.99A8.743,8.743,0,0,1,2007.472,1539.452Z" transform="translate(-2003.226 -1290.409)" fill="url(#linear-gradient-9)"/>
    <path id="Path_2517" data-name="Path 2517" d="M2204.745,1163.034c-4.308,1.737-5.765,4.715-9.55,7.435-.006,0-1.263,1.15-1.275,1.15-.529.377-1.076.371-1.328.072.7-2.091,1.311-4.146,2.045-6.153a59.714,59.714,0,0,1,3.961-7.429c.041-.066.088-.138.135-.216a12.426,12.426,0,0,0,1.5-2.624c.476-.958.746-1.767.382-1.881h0a.471.471,0,0,0-.276,0,3.836,3.836,0,0,0-.958.827c-.076.084-.141.174-.218.264a9.448,9.448,0,0,0-.758.917c-5.571,7-8.286,16.014-9.768,24.941.023.018.042.042.071.066-.523,3.259-.87,6.548-1.2,9.837a36.612,36.612,0,0,0-.083,10.137q-2.151-4.817-4.349-9.61c-2.809-6.135-5.753-12.36-10.367-17.224a3.431,3.431,0,0,0-.4-.341c-.194-.216-.382-.437-.582-.647a.991.991,0,0,1-.17-1.1,22.246,22.246,0,0,0,1.728-5.638.97.97,0,0,1,.682-.785c1.393-.4,2.256-1.8,3.232-3.026a23.258,23.258,0,0,0,2.586-4.056c.012-.018.029-.036.041-.054a20.231,20.231,0,0,0,1.916-3.643c.27-.671,1.322-2.666.617-3.319-.934-.869-1.593,1.432-1.792,2.037-.735,2.229-1.639,4.391-2.574,6.542a9.5,9.5,0,0,1-1.81,2.648.971.971,0,0,1-1.575-.995,33.648,33.648,0,0,0,.976-10.508,17.332,17.332,0,0,0-.082-4.307c-.117-1.067-.235-2.133-.347-3.193a13.223,13.223,0,0,0-.705-3.583c-.705-1.719-1.628-.917-1.557.665a30.8,30.8,0,0,0,.423,3.816q.467,6,.94,12.006c.053.713-.112,1.7-.811,1.719-.552.012-.864-.629-1.023-1.168-.646-2.259-1-4.691-1.657-6.944a.979.979,0,0,0-1.9.449,44.32,44.32,0,0,0,3.144,10.556,1.031,1.031,0,0,1,.065.611l-1.475,6.794a.966.966,0,0,1-1.781.306c-2.163-3.7-5.912-6.632-6.788-10.862-1.064-5.1,2.327-11-.5-15.349a57.343,57.343,0,0,0-.828,5.925.97.97,0,0,1-1.887.24c-.194-.557-.382-1.12-.576-1.678a.8.8,0,0,0-.129-.222c-.629-2.367-.735-4.937-1.258-7.357a2.632,2.632,0,0,0-.652-1.426c-1.992-1.845-1.687,3.229-1.475,3.972q.988,3.514,1.981,7.016c.223.947.435,1.887.682,2.828a.976.976,0,0,1-1.481,1.072,17.978,17.978,0,0,0-6.811-3.1,1,1,0,0,0-.846,1.714c3.544,3.187,8.633,4.685,11.736,8.411a42.74,42.74,0,0,1,3.579,5.925c4.067,6.9,11.172,11.922,14.134,19.285a.976.976,0,0,0,.676.587q1.86,3.622,3.614,7.3c-1.722-.929-3.838-1.641-5.289-2.522-2.668-1.606-5.23-3.391-7.816-5.134a3.448,3.448,0,0,0-2.11-.815,1.6,1.6,0,0,0,.153,1.785,4.436,4.436,0,0,0,1.493,1.144q3.923,2.184,7.969,4.122c1.1.527,4.343,2.546,6.306,2.93q5.95,12.689,10.631,25.953c1.469-2.337.406-5.41-.7-7.944q-2.027-4.655-4.1-9.3c.259-5.122,1.034-9.3,1.24-14.528.076-1.905,0-4.128.088-6.309.059.108.112.222.17.336a9.836,9.836,0,0,1,2.01-6.9,28.371,28.371,0,0,1,5.183-5.11c1.24-1.03,2.486-2.061,3.726-3.091,1.469-1.216,5.295-3.96,3.791-4.242Z" transform="translate(-2062.888 -1137.26)" fill="url(#linear-gradient-10)"/>
    <path id="Path_2518" data-name="Path 2518" d="M2080,1581.861c4.372,1.564,7.381.293,11.994.761l1.7-.018c.646.072,1.052.437,1.046.833-1.875,1.108-3.655,2.253-5.5,3.277a57.575,57.575,0,0,1-7.769,2.966c-.071.024-.159.048-.241.072a11.845,11.845,0,0,0-2.821.977c-.976.407-1.7.833-1.5,1.168h0a.473.473,0,0,0,.212.18,3.656,3.656,0,0,0,1.251.012c.112-.012.223-.036.335-.054a8.577,8.577,0,0,0,1.163-.186c8.709-1.564,16.555-6.554,23.413-12.312a.534.534,0,0,0-.012-.1c2.486-2.115,4.866-4.368,7.234-6.62a35.688,35.688,0,0,0,6.582-7.6q-1.472,5.078-2.9,10.161c-1.822,6.506-3.6,13.174-3.244,19.932a3.084,3.084,0,0,0,.082.527c.006.294.012.587.024.881a.979.979,0,0,1-.576.941,21.678,21.678,0,0,0-4.93,3.1.953.953,0,0,1-1.023.138c-1.3-.635-2.862-.15-4.384.12a22.177,22.177,0,0,0-4.566,1.336.283.283,0,0,0-.071.012,19.589,19.589,0,0,0-3.791,1.468c-.635.33-2.715,1.132-2.6,2.091.147,1.282,2.122-.018,2.662-.341,1.986-1.192,4.061-2.223,6.153-3.223a9.181,9.181,0,0,1,3.068-.791.993.993,0,0,1,.552,1.809,32.832,32.832,0,0,0-7.5,7.285,16.847,16.847,0,0,0-2.709,3.313c-.6.881-1.193,1.761-1.792,2.648a12.892,12.892,0,0,0-1.769,3.175c-.576,1.767.635,1.779,1.6.533a30.885,30.885,0,0,0,2.139-3.163q3.509-4.844,7.011-9.694c.417-.575,1.175-1.21,1.722-.755.429.359.247,1.054.018,1.564-.964,2.139-2.257,4.212-3.214,6.357a.983.983,0,0,0,1.728.935,43.926,43.926,0,0,0,4.414-10.071.94.94,0,0,1,.347-.5l5.477-4.146a.973.973,0,0,1,1.54.959c-.746,4.236.2,8.957-1.857,12.737-2.48,4.565-8.827,6.752-9.491,11.928a56.616,56.616,0,0,0,4.437-3.924.975.975,0,0,1,1.575,1.078c-.212.551-.429,1.1-.641,1.654a.988.988,0,0,0-.047.252c-1.052,2.2-2.621,4.218-3.785,6.4a2.607,2.607,0,0,0-.423,1.51c.323,2.726,3.35-1.312,3.667-2.013q1.508-3.307,3.021-6.626c.441-.863.887-1.719,1.3-2.588a.964.964,0,0,1,1.8.18,18.643,18.643,0,0,0,3.144,6.9.979.979,0,0,0,1.74-.725c-.629-4.775-3.508-9.31-3.455-14.193a43.472,43.472,0,0,1,1.1-6.866c1.364-7.932-.77-16.469,1.728-24.012a.989.989,0,0,0-.135-.893q.926-3.981,1.969-7.932c.7,1.851,1.839,3.8,2.374,5.44.981,3,1.769,6.057,2.6,9.1a3.61,3.61,0,0,0,1.064,2.025,1.573,1.573,0,0,0,1.034-1.456,4.568,4.568,0,0,0-.394-1.863q-1.56-4.269-3.367-8.435c-.488-1.132-1.639-4.829-2.879-6.422a280.715,280.715,0,0,1,8.662-26.7c-2.615.785-3.785,3.81-4.584,6.47q-1.463,4.871-2.885,9.76c-3.491,3.691-6.764,6.333-10.278,10.143-1.281,1.39-2.65,3.121-4.125,4.709.029-.12.059-.24.082-.365a9.506,9.506,0,0,1-5.947,3.864,27.821,27.821,0,0,1-7.2.4c-1.6-.054-3.2-.108-4.8-.156-1.892-.06-6.547-.545-5.589.665Z" transform="translate(-2033.596 -1301.269)" fill="url(#linear-gradient-11)"/>
    <path id="Path_2519" data-name="Path 2519" d="M2312.682,1333.253a4.843,4.843,0,0,0-4.055-.384,3.213,3.213,0,0,0-1.41.845,12.333,12.333,0,0,0-3.285-.245,13.712,13.712,0,0,0-1.963.377c-.2.048-.406.1-.605.156a26.058,26.058,0,0,1,9.238-8.052.83.83,0,0,0,.365-.389,2.449,2.449,0,0,0,1.5-.174,1.847,1.847,0,0,0,.981-2.007,1.748,1.748,0,0,0-.27-.581,1.641,1.641,0,0,0-1.916-.707,2.371,2.371,0,0,0-.823.737,3.064,3.064,0,0,0-.635,1.15,1.3,1.3,0,0,0-.035.443,27.8,27.8,0,0,0-10.89,10.215l-2.768.731c-.611.162-1.234.329-1.857.491.1-.084.2-.174.3-.258a.858.858,0,0,0,.476-.425q2.671-2.364,5.119-4.937a12.2,12.2,0,0,0,3.273-2.918c.288-.323.546-.617.758-.821a6.03,6.03,0,0,0,1.792-2.642,2.791,2.791,0,0,0-1.516-3.391h0a2.767,2.767,0,0,0-2.051.174,5.786,5.786,0,0,0-2.792,3.026,15.8,15.8,0,0,0-.969,3.684c-.029.15-.053.3-.082.449a9.584,9.584,0,0,0-.229,1.815v.03c-.917.947-1.857,1.875-2.827,2.774a31.768,31.768,0,0,1,3.009-8.723c.106-.2.212-.407.323-.605a16.751,16.751,0,0,0,1.246-2.72,9.894,9.894,0,0,0,.253-.977c.97-1.372,1.981-2.756,3-4.1a16.141,16.141,0,0,1,1.734-2.037,17.341,17.341,0,0,1,3.479-2.349l2.157-1.216a.812.812,0,0,0,.188-.162,1.6,1.6,0,0,0,1.076-.066,1.159,1.159,0,0,0,.517-1.719,1.089,1.089,0,0,0-1.264-.5,1.542,1.542,0,0,0-.558.479,3.926,3.926,0,0,0-.264.353.863.863,0,0,0-.529.084l-2.157,1.216a28.771,28.771,0,0,0-2.527,1.558,13.849,13.849,0,0,0-.153-4.236,2.586,2.586,0,0,0,.429-1.6,1.825,1.825,0,0,0-1.5-1.641,1.715,1.715,0,0,0-.629.054,1.679,1.679,0,0,0-1.322,1.582,2.428,2.428,0,0,0,.394,1.042,2.993,2.993,0,0,0,.835,1.006,1.254,1.254,0,0,0,.147.084,12.1,12.1,0,0,1-.37,5.686c-.359.419-.7.863-1.04,1.312-.505.671-1.011,1.342-1.5,2.025a14.88,14.88,0,0,0-1.98-5.715.917.917,0,0,0-.212-.24,2.6,2.6,0,0,0-.082-1.815,1.8,1.8,0,0,0-1.963-1.018,1.885,1.885,0,0,0-.576.27,1.7,1.7,0,0,0-.711,1.947,2.341,2.341,0,0,0,.717.845,2.944,2.944,0,0,0,1.122.659,1.36,1.36,0,0,0,.153.024.809.809,0,0,0,.076.228c1.7,2.912,2.221,5.967,1.44,8.394a15.482,15.482,0,0,1-1.122,2.432c-.112.21-.223.413-.329.623a33.633,33.633,0,0,0-3.514,11.371c-1.04.9-2.1,1.791-3.191,2.642a.851.851,0,0,0-.535.407,79.07,79.07,0,0,1-14.645,8.957,51.984,51.984,0,0,0,8.375-11.03,3.409,3.409,0,0,0,2.885-.767,6.8,6.8,0,0,0,2.057-2.588,4.746,4.746,0,0,0,.541-2.252,3.5,3.5,0,0,0-2.5-3.109,4,4,0,0,0-3.738.9,5.133,5.133,0,0,0-1.61,3.409,4.86,4.86,0,0,0,.911,3.469c-4.325,7.351-8.892,12.288-14.345,15.5a.821.821,0,0,0-.211.192c-8.416,4.661-20.563,13.36-32.757,28.937-.294.377.047-.066.417.24.082.066.97-1.294.57.258-.088.347.123.893.359.593,15.227-19.459,30.336-28,37.987-31.357.617-.27,1.234-.551,1.845-.839a1.085,1.085,0,0,0,.27-.036,14.893,14.893,0,0,1,9.615.347,3.471,3.471,0,0,0,1.058,2.39,4.361,4.361,0,0,0,1.71,1.12,2.9,2.9,0,0,0,1.428.144,3.412,3.412,0,0,0,.935-.33,3.147,3.147,0,0,0,1.728-1.857,3.1,3.1,0,0,0-1.675-3.4,4.541,4.541,0,0,0-3.8-.276,2.393,2.393,0,0,0-.758.581,16.625,16.625,0,0,0-5.8-1.1,81.674,81.674,0,0,0,10.437-6.9c1.828-.455,3.7-.947,5.507-1.432,1.916-.509,3.9-1.036,5.83-1.51a12.463,12.463,0,0,1,1.71-.336,12.117,12.117,0,0,1,3.2.294,6.194,6.194,0,0,0,1.169.982l.312.222a7.088,7.088,0,0,0,1.845,1.073,3.386,3.386,0,0,0,.705.168,2.523,2.523,0,0,0,2.856-1.821,2.817,2.817,0,0,0-1.493-2.87Zm-11.507-8.873a4.1,4.1,0,0,1,1.922-2.145,1.181,1.181,0,0,1,.805-.12h0c.353.12.558.749.417,1.27a4.625,4.625,0,0,1-1.34,1.863c-.229.228-.511.539-.823.893a22.592,22.592,0,0,1-1.91,1.959c.029-.15.059-.294.082-.443A14.719,14.719,0,0,1,2301.175,1324.381Zm-18.341,6.566a3.359,3.359,0,0,1,1.034-2.235,2.31,2.31,0,0,1,2.122-.545.333.333,0,0,1,.071.024,1.789,1.789,0,0,1,1.193,1.5,2.926,2.926,0,0,1-.365,1.384,5.018,5.018,0,0,1-1.516,1.941c-.482.354-1.175.713-1.716.4A2.642,2.642,0,0,1,2282.833,1330.947Zm6.911,16.589a2.019,2.019,0,0,1,.394.174c.517.288.987.887.852,1.36a2.121,2.121,0,0,1-1.311.964h0a2.122,2.122,0,0,1-1.616-.761,1.944,1.944,0,0,1-.147-.18.844.844,0,0,0,.981-.419.879.879,0,0,0-.341-1.186c-.076-.042-.153-.078-.229-.12A3.285,3.285,0,0,1,2289.745,1347.536Zm21.791-11.329a4.3,4.3,0,0,1-1.763-.923l-.323-.234c-.17-.12-.382-.276-.558-.413.082-.036.177-.072.3-.114a3.143,3.143,0,0,1,2.621.234c.458.276.752.707.693.995s-.535.509-.964.455Z" transform="translate(-2098.635 -1203.882)" fill="url(#linear-gradient-12)"/>
  </g>
</svg>
