<svg id="instagram" xmlns="http://www.w3.org/2000/svg" width="24" height="24" viewBox="0 0 24 24">
  <path id="Path_2581" data-name="Path 2581" d="M166.628,158.9h-5.093a2.637,2.637,0,0,0-2.635,2.635v5.093a2.637,2.637,0,0,0,2.635,2.635h5.093a2.637,2.637,0,0,0,2.635-2.635v-5.093A2.64,2.64,0,0,0,166.628,158.9Zm-2.549,8.587a3.408,3.408,0,1,1,3.408-3.408A3.414,3.414,0,0,1,164.079,167.487Zm3.579-6.437a.576.576,0,1,1,.576-.576A.574.574,0,0,1,167.657,161.049Z" transform="translate(-152.079 -152.079)"/>
  <circle id="Ellipse_880" data-name="Ellipse 880" cx="2.069" cy="2.069" r="2.069" transform="translate(9.908 14.045) rotate(-89.312)"/>
  <path id="Path_2582" data-name="Path 2582" d="M43,31A12,12,0,1,0,55,43,12,12,0,0,0,43,31Zm6.667,14.549a4.12,4.12,0,0,1-4.117,4.117H40.456a4.12,4.12,0,0,1-4.117-4.117V40.456a4.12,4.12,0,0,1,4.117-4.117h5.093a4.12,4.12,0,0,1,4.117,4.117Z" transform="translate(-31 -31)"/>
</svg>
