<svg id="Layer_2" data-name="Layer 2" xmlns="http://www.w3.org/2000/svg" width="24" height="24" viewBox="0 0 24 24">
  <g id="_04.youtube" data-name="04.youtube">
    <path id="Path_2579" data-name="Path 2579" d="M66.91,61.44l3.744,2.3-3.744,2.3Z" transform="translate(-56.345 -51.739)"/>
    <path id="Path_2580" data-name="Path 2580" d="M12,0A12,12,0,1,0,24,12,12,12,0,0,0,12,0Zm5.719,14.888a2.135,2.135,0,0,1-1.765,1.288,37.392,37.392,0,0,1-7.907,0,2.135,2.135,0,0,1-1.765-1.288,14.991,14.991,0,0,1,0-5.774A2.121,2.121,0,0,1,8.053,7.825a37.393,37.393,0,0,1,7.907,0,2.132,2.132,0,0,1,1.765,1.288,14.991,14.991,0,0,1-.006,5.774Z"/>
  </g>
</svg>
