<svg xmlns="http://www.w3.org/2000/svg" width="17" height="14" viewBox="0 0 17 14">
  <path id="Path_5470" data-name="Path 5470" d="M2.354,12.243a.9.9,0,0,0,.3.679l6.006,6.039a.906.906,0,0,0,.649.282.878.878,0,0,0,.638-.248.834.834,0,0,0,.255-.624.95.95,0,0,0-.069-.36.871.871,0,0,0-.188-.29L7.914,15.641l-3.48-3.191-.263.518,3.04.185H18.449a.909.909,0,1,0,0-1.818H7.211l-3.04.184.263.526,3.48-3.2L9.946,6.766a.872.872,0,0,0,.188-.29.947.947,0,0,0,.069-.36.836.836,0,0,0-.255-.625.877.877,0,0,0-.638-.249.863.863,0,0,0-.344.071,1.145,1.145,0,0,0-.331.228L2.656,11.564A.906.906,0,0,0,2.354,12.243Z" transform="translate(-2.354 -5.242)" fill="#d7a844"/>
</svg>
