<svg xmlns="http://www.w3.org/2000/svg" width="20" height="20" viewBox="0 0 20 20">
  <path id="Path_5028" data-name="Path 5028" d="M7.612-.523A26.987,26.987,0,0,0,10.9,2.293,17.484,17.484,0,0,0,14.35,4.275,8.415,8.415,0,0,0,17.616,5a5.052,5.052,0,0,0,1.952-.375A4.534,4.534,0,0,0,21.2,3.446a4.24,4.24,0,0,0,.674-1.02,2.556,2.556,0,0,0,.252-1.086,1.9,1.9,0,0,0-.175-.793,1.6,1.6,0,0,0-.562-.654L18.1-2.434a2.982,2.982,0,0,0-.695-.4,1.726,1.726,0,0,0-.622-.126,1.386,1.386,0,0,0-.708.2,3.566,3.566,0,0,0-.706.564l-.773.752a.538.538,0,0,1-.41.17.722.722,0,0,1-.24-.04q-.115-.04-.195-.076a8.579,8.579,0,0,1-1.287-.936q-.786-.661-1.581-1.455T9.424-5.361A7.217,7.217,0,0,1,8.5-6.645a1.593,1.593,0,0,1-.087-.2.689.689,0,0,1-.04-.235.525.525,0,0,1,.169-.4L9.3-8.25a3.82,3.82,0,0,0,.565-.716,1.4,1.4,0,0,0,.2-.718,1.692,1.692,0,0,0-.126-.61,3.178,3.178,0,0,0-.4-.7l-2.31-3.235a1.714,1.714,0,0,0-.675-.58A1.973,1.973,0,0,0,5.706-15a2.952,2.952,0,0,0-2.068.924,4.631,4.631,0,0,0-1.149,1.664,5.243,5.243,0,0,0-.36,1.939,8.427,8.427,0,0,0,.72,3.261,17.2,17.2,0,0,0,1.96,3.424A26.554,26.554,0,0,0,7.612-.523Z" transform="translate(-2.129 14.996)" fill="#009000"/>
</svg>
