<svg xmlns="http://www.w3.org/2000/svg" width="40" height="40" viewBox="0 0 40 40">
  <g id="Pause" transform="translate(1474 8493)">
    <path id="Ellipse_1443" data-name="Ellipse 1443" d="M20,3A17,17,0,0,0,7.979,32.021,17,17,0,0,0,32.021,7.979,16.889,16.889,0,0,0,20,3m0-3A20,20,0,1,1,0,20,20,20,0,0,1,20,0Z" transform="translate(-1474 -8493)" fill="#fff"/>
    <path id="Rectangle_2735" data-name="Rectangle 2735" d="M3,3V13H13V3H3M2,0H14a2,2,0,0,1,2,2V14a2,2,0,0,1-2,2H2a2,2,0,0,1-2-2V2A2,2,0,0,1,2,0Z" transform="translate(-1462 -8481)" fill="#fff"/>
  </g>
</svg>
