<svg xmlns="http://www.w3.org/2000/svg" xmlns:xlink="http://www.w3.org/1999/xlink" width="105" height="31.111" viewBox="0 0 105 31.111">
  <defs>
    <linearGradient id="linear-gradient" x1="0.908" y1="1.032" x2="-0.383" y2="0.36" gradientUnits="objectBoundingBox">
      <stop offset="0" stop-color="#00a0ff"/>
      <stop offset="0.007" stop-color="#00a1ff"/>
      <stop offset="0.26" stop-color="#00beff"/>
      <stop offset="0.512" stop-color="#00d2ff"/>
      <stop offset="0.76" stop-color="#00dfff"/>
      <stop offset="1" stop-color="#00e3ff"/>
    </linearGradient>
    <linearGradient id="linear-gradient-2" x1="1.077" y1="0.729" x2="-1.307" y2="0.729" gradientUnits="objectBoundingBox">
      <stop offset="0" stop-color="#ffe000"/>
      <stop offset="0.409" stop-color="#ffbd00"/>
      <stop offset="0.775" stop-color="orange"/>
      <stop offset="1" stop-color="#ff9c00"/>
    </linearGradient>
    <linearGradient id="linear-gradient-3" x1="0.864" y1="-0.023" x2="-0.499" y2="-1.789" gradientUnits="objectBoundingBox">
      <stop offset="0" stop-color="#ff3a44"/>
      <stop offset="1" stop-color="#c31162"/>
    </linearGradient>
    <linearGradient id="linear-gradient-4" x1="-0.186" y1="2.701" x2="0.423" y2="1.909" gradientUnits="objectBoundingBox">
      <stop offset="0" stop-color="#32a071"/>
      <stop offset="0.069" stop-color="#2da771"/>
      <stop offset="0.476" stop-color="#15cf74"/>
      <stop offset="0.801" stop-color="#06e775"/>
      <stop offset="1" stop-color="#00f076"/>
    </linearGradient>
  </defs>
  <g id="play" transform="translate(1007 -19)">
    <path id="Path_9" data-name="Path 9" d="M101.111,31.111H3.889A3.851,3.851,0,0,1,0,27.222V3.889A3.851,3.851,0,0,1,3.889,0h97.222A3.851,3.851,0,0,1,105,3.889V27.222A3.851,3.851,0,0,1,101.111,31.111Z" transform="translate(-1007 19)"/>
    <path id="Path_10" data-name="Path 10" d="M101.111.622a3.286,3.286,0,0,1,3.267,3.267V27.222a3.286,3.286,0,0,1-3.267,3.267H3.889A3.286,3.286,0,0,1,.622,27.222V3.889A3.286,3.286,0,0,1,3.889.622h97.222m0-.622H3.889A3.9,3.9,0,0,0,0,3.889V27.222a3.851,3.851,0,0,0,3.889,3.889h97.222A3.851,3.851,0,0,0,105,27.222V3.889A3.9,3.9,0,0,0,101.111,0Z" transform="translate(-1007 19)" fill="#a6a6a6"/>
    <path id="Path_11" data-name="Path 11" d="M46.067,9.467a2.119,2.119,0,0,1-.544,1.556A2.411,2.411,0,0,1,41.4,9.311,2.39,2.39,0,0,1,43.811,6.9a2.071,2.071,0,0,1,.933.233,1.694,1.694,0,0,1,.7.544l-.389.389a1.45,1.45,0,0,0-1.244-.544,1.548,1.548,0,0,0-1.244.544,1.6,1.6,0,0,0-.544,1.322,1.6,1.6,0,0,0,.544,1.322,2,2,0,0,0,1.244.544,1.706,1.706,0,0,0,1.322-.544,1.288,1.288,0,0,0,.389-.933H43.811V9.156h2.256v.311Zm3.578-1.944h-2.1V9h1.944v.544H47.544v1.478h2.1v.622H46.922V6.978h2.722Zm2.567,4.122h-.622V7.522H50.267V6.978h3.267v.544H52.211Zm3.578,0V6.978h.622v4.667Zm3.267,0h-.622V7.522H57.111V6.978H60.3v.544H58.978v4.122Zm7.389-.622a2.411,2.411,0,0,1-4.122-1.711,2.411,2.411,0,1,1,4.822,0A2.287,2.287,0,0,1,66.444,11.022Zm-2.956-.389a1.835,1.835,0,0,0,1.244.544,1.548,1.548,0,0,0,1.244-.544,1.876,1.876,0,0,0,.544-1.322,1.6,1.6,0,0,0-.544-1.322,1.835,1.835,0,0,0-1.244-.544,1.548,1.548,0,0,0-1.244.544,1.876,1.876,0,0,0-.544,1.322A1.6,1.6,0,0,0,63.489,10.633ZM68,11.644V6.978h.7l2.256,3.656V6.978h.622v4.667h-.622L68.544,7.833v3.811H68Z" transform="translate(-1016.2 17.467)" fill="#fff" stroke="#fff" stroke-miterlimit="10" stroke-width="0.2"/>
    <path id="Path_12" data-name="Path 12" d="M62.1,20.756A3.272,3.272,0,0,0,58.756,24.1,3.32,3.32,0,0,0,62.1,27.444,3.272,3.272,0,0,0,65.444,24.1,3.227,3.227,0,0,0,62.1,20.756Zm0,5.289A2.029,2.029,0,0,1,62.1,22a1.884,1.884,0,0,1,1.867,2.022A1.931,1.931,0,0,1,62.1,26.044Zm-7.233-5.289A3.272,3.272,0,0,0,51.522,24.1a3.32,3.32,0,0,0,3.344,3.344A3.272,3.272,0,0,0,58.211,24.1,3.227,3.227,0,0,0,54.867,20.756Zm0,5.289a2.029,2.029,0,0,1,0-4.044,1.884,1.884,0,0,1,1.867,2.022A1.931,1.931,0,0,1,54.867,26.044Zm-8.633-4.278v1.4h3.344a2.941,2.941,0,0,1-.778,1.789,3.443,3.443,0,0,1-2.567,1.011,3.621,3.621,0,0,1-3.656-3.733A3.669,3.669,0,0,1,46.233,18.5,3.856,3.856,0,0,1,48.8,19.511L49.811,18.5a4.984,4.984,0,0,0-3.5-1.4A5.247,5.247,0,0,0,41.1,22.233a5.247,5.247,0,0,0,5.211,5.133,4.476,4.476,0,0,0,3.578-1.478,4.682,4.682,0,0,0,1.244-3.267,2.916,2.916,0,0,0-.078-.856H46.233Zm35.311,1.089a3.022,3.022,0,0,0-2.8-2.1A3.133,3.133,0,0,0,75.633,24.1,3.255,3.255,0,0,0,78.9,27.444a3.191,3.191,0,0,0,2.722-1.478l-1.089-.778a1.9,1.9,0,0,1-1.633.933,1.687,1.687,0,0,1-1.633-1.011L81.7,23.244l-.156-.389Zm-4.511,1.089A1.889,1.889,0,0,1,78.744,22a1.376,1.376,0,0,1,1.244.7l-2.956,1.244Zm-3.656,3.189h1.478V17.411H73.378Zm-2.333-5.678a2.561,2.561,0,0,0-1.789-.778,3.342,3.342,0,0,0-3.189,3.344,3.221,3.221,0,0,0,3.189,3.267,2.233,2.233,0,0,0,1.711-.778h.078v.467a1.768,1.768,0,0,1-3.422.778l-1.244.544a3.209,3.209,0,0,0,2.956,1.944c1.711,0,3.111-1.011,3.111-3.422V20.911h-1.4v.544Zm-1.711,4.589a2.029,2.029,0,0,1,0-4.044,1.871,1.871,0,0,1,1.789,2.022A1.871,1.871,0,0,1,69.333,26.044Zm18.978-8.633h-3.5v9.722h1.478V23.478h2.022a3.037,3.037,0,1,0,0-6.067Zm.078,4.667h-2.1V18.733h2.1A1.708,1.708,0,0,1,90.1,20.367a1.78,1.78,0,0,1-1.711,1.711Zm8.944-1.4a2.614,2.614,0,0,0-2.567,1.478l1.322.544a1.374,1.374,0,0,1,1.322-.7,1.462,1.462,0,0,1,1.556,1.244v.078a3.085,3.085,0,0,0-1.478-.389c-1.4,0-2.8.778-2.8,2.178A2.279,2.279,0,0,0,97.1,27.289a2.189,2.189,0,0,0,1.867-.933h.078v.778h1.4V23.4A2.944,2.944,0,0,0,97.333,20.678Zm-.156,5.367c-.467,0-1.167-.233-1.167-.856,0-.778.856-1.011,1.556-1.011a3.008,3.008,0,0,1,1.322.311A1.811,1.811,0,0,1,97.178,26.044Zm8.167-5.133-1.633,4.2h-.078l-1.711-4.2h-1.556l2.567,5.911-1.478,3.267h1.478l3.967-9.178h-1.556ZM92.278,27.133h1.478V17.411H92.278Z" transform="translate(-1016.133 15.2)" fill="#fff"/>
    <path id="Path_13" data-name="Path 13" d="M10.311,7.5A1.521,1.521,0,0,0,10,8.589V25.778a1.539,1.539,0,0,0,.389,1.089l.078.078L20.111,17.3v-.156Z" transform="translate(-1009.222 17.333)" fill="url(#linear-gradient)"/>
    <path id="Path_14" data-name="Path 14" d="M26.089,22.411,22.9,19.222v-.233L26.089,15.8l.078.078,3.811,2.178a1.187,1.187,0,0,1,0,2.256Z" transform="translate(-1012.089 15.489)" fill="url(#linear-gradient-2)"/>
    <path id="Path_15" data-name="Path 15" d="M23.389,23.267,20.122,20,10.4,29.722c.389.389.933.389,1.633.078l11.356-6.533" transform="translate(-1009.311 14.556)" fill="url(#linear-gradient-3)"/>
    <path id="Path_16" data-name="Path 16" d="M23.389,13.883,12.033,7.427A1.261,1.261,0,0,0,10.4,7.5l9.722,9.644,3.267-3.267Z" transform="translate(-1009.311 17.406)" fill="url(#linear-gradient-4)"/>
    <path id="Path_17" data-name="Path 17" d="M23.311,24.1,12.033,30.478a1.272,1.272,0,0,1-1.556,0l-.078.078.078.078a1.272,1.272,0,0,0,1.556,0Z" transform="translate(-1009.311 13.644)" opacity="0.2"/>
    <path id="Path_18" data-name="Path 18" d="M10.311,29.567A1.521,1.521,0,0,1,10,28.478v.078a1.539,1.539,0,0,0,.389,1.089v-.078h-.078Zm16.8-8.556-3.889,2.178.078.078,3.811-2.178A1.293,1.293,0,0,0,27.889,20C27.889,20.389,27.578,20.7,27.111,21.011Z" transform="translate(-1009.222 14.556)" opacity="0.12"/>
    <path id="Path_19" data-name="Path 19" d="M11.944,7.5l15.167,8.633c.467.311.778.622.778,1.011a1.293,1.293,0,0,0-.778-1.089L11.944,7.422C10.856,6.8,10,7.266,10,8.51v.078C10,7.422,10.856,6.877,11.944,7.5Z" transform="translate(-1009.222 17.412)" fill="#fff" opacity="0.25"/>
  </g>
</svg>
