<svg xmlns="http://www.w3.org/2000/svg" width="17" height="14" viewBox="0 0 17 14">
  <path id="Path_5471" data-name="Path 5471" d="M19.354,12.243a.9.9,0,0,1-.3.679l-6.006,6.039a.906.906,0,0,1-.649.282.878.878,0,0,1-.638-.248.834.834,0,0,1-.255-.624.95.95,0,0,1,.069-.36.871.871,0,0,1,.188-.29l2.032-2.079,3.48-3.191.263.518-3.04.185H3.258a.909.909,0,1,1,0-1.818H14.5l3.04.184-.263.526-3.48-3.2L11.761,6.766a.872.872,0,0,1-.188-.29.947.947,0,0,1-.069-.36.836.836,0,0,1,.255-.625.877.877,0,0,1,.638-.249.863.863,0,0,1,.344.071,1.145,1.145,0,0,1,.331.228l5.981,6.022A.906.906,0,0,1,19.354,12.243Z" transform="translate(-2.354 -5.242)" fill="#d7a844"/>
</svg>
