<svg xmlns="http://www.w3.org/2000/svg" width="24" height="24" viewBox="0 0 24 24">
  <path id="twitter" d="M43,31A12,12,0,1,0,55,43,12,12,0,0,0,43,31Zm5.349,9.232a8.006,8.006,0,0,1-2.416,6.213c-3.931,3.728-9.6.827-9.6.827a5.527,5.527,0,0,0,3.877-1.115c-2.24-.384-2.464-1.984-2.464-1.984.384.24,1.221,0,1.221,0-2.5-1.147-2.107-2.656-2.107-2.656a1.811,1.811,0,0,0,1.269.256,2.7,2.7,0,0,1-.843-3.472c3.408,3.243,5.6,2.576,5.6,2.576-.155-2.283,1.195-3.168,2.651-3.216a2.521,2.521,0,0,1,1.931.811,3.158,3.158,0,0,0,1.829-.549c-.08.763-1.115,1.408-1.115,1.408a5.163,5.163,0,0,0,1.477-.245A2.49,2.49,0,0,1,48.349,40.232Z" transform="translate(-31 -31)"/>
</svg>
