<svg xmlns="http://www.w3.org/2000/svg" width="36" height="36" viewBox="0 0 36 36">
  <g id="vuesax_linear_lock" data-name="vuesax/linear/lock" transform="translate(-172 -252)">
    <g id="lock" transform="translate(172 252)">
      <path id="Vector" d="M0,12V9C0,4.035,1.5,0,9,0s9,4.035,9,9v3" transform="translate(9 3)" fill="none" stroke="#fc2159" stroke-linecap="round" stroke-linejoin="round" stroke-width="2"/>
      <path id="Vector-2" data-name="Vector" d="M7.5,3.75A3.75,3.75,0,1,1,3.75,0,3.75,3.75,0,0,1,7.5,3.75Z" transform="translate(14.25 20.25)" fill="none" stroke="#fc2159" stroke-linecap="round" stroke-linejoin="round" stroke-width="2"/>
      <path id="Vector-3" data-name="Vector" d="M22.5,18H7.5C1.5,18,0,16.5,0,10.5v-3C0,1.5,1.5,0,7.5,0h15c6,0,7.5,1.5,7.5,7.5v3C30,16.5,28.5,18,22.5,18Z" transform="translate(3 15)" fill="none" stroke="#fc2159" stroke-linecap="round" stroke-linejoin="round" stroke-width="2"/>
      <path id="Vector-4" data-name="Vector" d="M0,0H36V36H0Z" transform="translate(36 36) rotate(180)" fill="none" opacity="0"/>
    </g>
  </g>
</svg>
