<svg xmlns="http://www.w3.org/2000/svg" xmlns:xlink="http://www.w3.org/1999/xlink" width="61" height="61" viewBox="0 0 61 61">
  <defs>
    <filter id="Ellipse_1439" x="0" y="0" width="61" height="61" filterUnits="userSpaceOnUse">
      <feOffset dy="3" input="SourceAlpha"/>
      <feGaussianBlur stdDeviation="3" result="blur"/>
      <feFlood flood-opacity="0.161"/>
      <feComposite operator="in" in2="blur"/>
      <feComposite in="SourceGraphic"/>
    </filter>
  </defs>
  <g id="vuesax_bold_video-circle" data-name="vuesax/bold/video-circle" transform="translate(13 11)">
    <g id="video-circle" transform="translate(0 0)">
      <path id="Vector" d="M0,0H34V34H0Z" fill="none" opacity="0"/>
      <g transform="matrix(1, 0, 0, 1, -13, -11)" filter="url(#Ellipse_1439)">
        <circle id="Ellipse_1439-2" data-name="Ellipse 1439" cx="21.5" cy="21.5" r="21.5" transform="translate(9 6)" fill="#fc2159"/>
      </g>
      <g id="vuesax_linear_call" data-name="vuesax/linear/call" transform="translate(-100 -181)">
        <g id="call" transform="translate(108 188)">
          <g id="call-2" data-name="call" transform="translate(1.733 1.733)">
            <path id="Vector-2" data-name="Vector" d="M16.507,13.5a2.1,2.1,0,0,1-.207.9,3.411,3.411,0,0,1-.562.843,3.727,3.727,0,0,1-1.356.975,4.151,4.151,0,0,1-1.612.314,6.888,6.888,0,0,1-2.695-.6,14.518,14.518,0,0,1-2.844-1.637,23.765,23.765,0,0,1-2.711-2.315,23.488,23.488,0,0,1-2.306-2.7A14.738,14.738,0,0,1,.6,6.456a6.963,6.963,0,0,1-.6-2.7,4.277,4.277,0,0,1,.3-1.6A3.8,3.8,0,0,1,1.248.777,2.422,2.422,0,0,1,2.968,0a1.553,1.553,0,0,1,.67.149,1.348,1.348,0,0,1,.554.463l1.918,2.7a2.829,2.829,0,0,1,.331.579,1.307,1.307,0,0,1,.116.5,1.122,1.122,0,0,1-.174.587,2.812,2.812,0,0,1-.463.587l-.628.653a.442.442,0,0,0-.132.331.751.751,0,0,0,.025.19c.025.066.05.116.066.165a6.86,6.86,0,0,0,.769,1.058c.372.43.769.868,1.2,1.306.446.438.876.843,1.314,1.215a6.344,6.344,0,0,0,1.066.761c.041.017.091.041.149.066a.571.571,0,0,0,.207.033.455.455,0,0,0,.339-.141l.628-.62a2.536,2.536,0,0,1,.6-.463,1.1,1.1,0,0,1,.587-.174,1.319,1.319,0,0,1,.5.107,3.2,3.2,0,0,1,.579.322l2.736,1.943a1.254,1.254,0,0,1,.455.529A1.7,1.7,0,0,1,16.507,13.5Z" transform="translate(0 0)" fill="none" stroke="#fff" stroke-width="1.5"/>
          </g>
          <path id="Vector-3" data-name="Vector" d="M0,0H20V20H0Z" fill="none" opacity="0"/>
        </g>
      </g>
    </g>
  </g>
</svg>
