<svg xmlns="http://www.w3.org/2000/svg" width="36" height="36" viewBox="0 0 36 36">
  <g id="vuesax_linear_monitor-recorder" data-name="vuesax/linear/monitor-recorder" transform="translate(-492 -188)">
    <g id="monitor-recorder" transform="translate(492 188)">
      <path id="Vector" d="M30,14.835V16.17c0,5.34-1.335,6.66-6.66,6.66H6.66C1.335,22.83,0,21.5,0,16.17V6.66C0,1.335,1.335,0,6.66,0H9" transform="translate(3 3)" fill="none" stroke="#d7a844" stroke-linecap="round" stroke-linejoin="round" stroke-width="2"/>
      <path id="Vector-2" data-name="Vector" d="M0,0V7.17" transform="translate(18 25.83)" fill="none" stroke="#d7a844" stroke-linecap="round" stroke-linejoin="round" stroke-width="2"/>
      <path id="Vector-3" data-name="Vector" d="M0,0H30" transform="translate(3 19.5)" fill="none" stroke="#d7a844" stroke-linecap="round" stroke-linejoin="round" stroke-width="2"/>
      <path id="Vector-4" data-name="Vector" d="M0,0H13.5" transform="translate(11.25 33)" fill="none" stroke="#d7a844" stroke-linecap="round" stroke-linejoin="round" stroke-width="2"/>
      <path id="Vector-5" data-name="Vector" d="M9.9,11.04H2.76A2.527,2.527,0,0,1,0,8.28V3A3.009,3.009,0,0,1,3,0H9.9a2.753,2.753,0,0,1,2.76,2.76V8.28A2.753,2.753,0,0,1,9.9,11.04Z" transform="translate(16.89 3.015)" fill="none" stroke="#d7a844" stroke-linecap="round" stroke-linejoin="round" stroke-width="2"/>
      <path id="Vector-6" data-name="Vector" d="M1.815,6.985,0,5.71V1.57L1.815.3c.9-.615,1.635-.24,1.635.855v5C3.45,7.24,2.715,7.615,1.815,6.985Z" transform="translate(29.55 4.895)" fill="none" stroke="#d7a844" stroke-linecap="round" stroke-linejoin="round" stroke-width="2"/>
      <path id="Vector-7" data-name="Vector" d="M0,0H36V36H0Z" fill="none" opacity="0"/>
    </g>
  </g>
</svg>
