<svg id="WA_Logo" xmlns="http://www.w3.org/2000/svg" width="22" height="22" viewBox="0 0 22 22">
  <g id="Group_3551" data-name="Group 3551" transform="translate(0)">
    <path id="Path_5029" data-name="Path 5029" d="M18.853,3.2a10.965,10.965,0,0,0-18.7,7.7,10.842,10.842,0,0,0,1.463,5.45L.057,22l5.806-1.516A10.984,10.984,0,0,0,11.1,21.811h0a10.945,10.945,0,0,0,10.954-10.9A10.806,10.806,0,0,0,18.853,3.2ZM11.1,19.97h0a9.114,9.114,0,0,1-4.634-1.263l-.333-.2-3.446.9.92-3.344-.216-.343A9,9,0,0,1,2,10.9,9.114,9.114,0,0,1,17.545,4.5a8.986,8.986,0,0,1,2.664,6.41A9.1,9.1,0,0,1,11.1,19.97ZM16.1,13.183c-.274-.137-1.619-.8-1.871-.886s-.433-.137-.616.136-.706.886-.867,1.069-.32.2-.593.068a7.478,7.478,0,0,1-2.2-1.352A8.206,8.206,0,0,1,8.427,10.33c-.159-.273-.017-.42.12-.556s.274-.318.411-.478a1.808,1.808,0,0,0,.275-.454.5.5,0,0,0-.023-.478c-.069-.136-.616-1.477-.844-2.022s-.448-.459-.616-.467-.342-.009-.525-.009a1,1,0,0,0-.729.341A3.052,3.052,0,0,0,5.537,8.48,5.288,5.288,0,0,0,6.655,11.3a12.172,12.172,0,0,0,4.675,4.113,15.886,15.886,0,0,0,1.56.574,3.78,3.78,0,0,0,1.724.108,2.819,2.819,0,0,0,1.848-1.3,2.256,2.256,0,0,0,.159-1.3C16.554,13.388,16.371,13.32,16.1,13.183Z" transform="translate(-0.057)" fill="#009000" fill-rule="evenodd"/>
  </g>
</svg>
