<svg xmlns="http://www.w3.org/2000/svg" width="60" height="60" viewBox="0 0 60 60">
  <g id="vuesax_linear_video-play" data-name="vuesax/linear/video-play" transform="translate(-236 -384)">
    <g id="video-play" transform="translate(236 384)">
      <path id="Vector" d="M50,32.5v-15C50,5,45,0,32.5,0h-15C5,0,0,5,0,17.5v15C0,45,5,50,17.5,50h15C45,50,50,45,50,32.5Z" transform="translate(5 5)" fill="none" stroke="#af8c3c" stroke-linecap="round" stroke-linejoin="round" stroke-width="2"/>
      <path id="Vector-2" data-name="Vector" d="M0,0H47.4" transform="translate(6.3 17.775)" fill="none" stroke="#af8c3c" stroke-linecap="round" stroke-linejoin="round" stroke-width="2"/>
      <path id="Vector-3" data-name="Vector" d="M0,0V12.15" transform="translate(21.3 5.275)" fill="none" stroke="#af8c3c" stroke-linecap="round" stroke-linejoin="round" stroke-width="2"/>
      <path id="Vector-4" data-name="Vector" d="M0,0V11.025" transform="translate(38.7 5.275)" fill="none" stroke="#af8c3c" stroke-linecap="round" stroke-linejoin="round" stroke-width="2"/>
      <path id="Vector-5" data-name="Vector" d="M0,7.322v-3C0,.472,2.725-1.1,6.05.822l2.6,1.5,2.6,1.5c3.325,1.925,3.325,5.075,0,7l-2.6,1.5-2.6,1.5c-3.325,1.925-6.05.35-6.05-3.5v-3Z" transform="translate(24.375 28.803)" fill="none" stroke="#af8c3c" stroke-linecap="round" stroke-linejoin="round" stroke-width="2"/>
      <path id="Vector-6" data-name="Vector" d="M0,0H60V60H0Z" fill="none" opacity="0"/>
    </g>
  </g>
</svg>
