<svg xmlns="http://www.w3.org/2000/svg" width="60" height="60" viewBox="0 0 60 60">
  <g id="vuesax_linear_key" data-name="vuesax/linear/key" transform="translate(-684 -188)">
    <g id="key" transform="translate(684 188)">
      <path id="Vector" d="M44.481,32.306a18.937,18.937,0,0,1-19,4.675L13.706,48.731a4.838,4.838,0,0,1-3.725,1.225l-5.45-.75a4.719,4.719,0,0,1-3.75-3.75l-.75-5.45a5.037,5.037,0,0,1,1.225-3.725l11.75-11.75a18.928,18.928,0,1,1,31.475,7.775Z" transform="translate(4.994 5.019)" fill="none" stroke="#af8c3c" stroke-linecap="round" stroke-linejoin="round" stroke-width="2"/>
      <path id="Vector-2" data-name="Vector" d="M0,0,5.75,5.75" transform="translate(17.225 43.725)" fill="none" stroke="#af8c3c" stroke-linecap="round" stroke-linejoin="round" stroke-width="2"/>
      <path id="Vector-3" data-name="Vector" d="M7.5,3.75A3.75,3.75,0,1,1,3.75,0,3.75,3.75,0,0,1,7.5,3.75Z" transform="translate(32.5 20)" fill="none" stroke="#af8c3c" stroke-linecap="round" stroke-linejoin="round" stroke-width="2"/>
      <path id="Vector-4" data-name="Vector" d="M0,0H60V60H0Z" transform="translate(60 60) rotate(180)" fill="none" opacity="0"/>
    </g>
  </g>
</svg>
